<svg height="64" preserveAspectRatio="none" viewBox="0 0 64 64" width="64" xmlns="http://www.w3.org/2000/svg"><path d="m42.3541527 38.3608589c-.4829788-5.2282677-5.4272118-12.158762-5.4272118-12.158762h-4.728199-4.7281971s-4.9442348 6.9304943-5.4272118 12.158762c0 0-5.7638187 6.0793839-2.7688122 10.4565392s8.5506382 5.593029 12.924221 5.593029 9.9292145-1.2158737 12.924221-5.593029-2.7688101-10.4565392-2.7688101-10.4565392z" fill="#ebcf86"/><path d="m32.1987305 54.6601563c-3.4467773 0-9.7358398-.7412109-13.1308594-5.7011719-2.9423828-4.3007813 2.0883789-10.0039063 2.7348633-10.7060547.5273438-5.2236328 5.262207-11.9121094 5.4643555-12.1958008l.074707-.1049805h9.7138672l.0742188.1049805c.203125.2836914 4.9375 6.972168 5.4648438 12.1958008.6474609.7021484 5.6767578 6.4052734 2.734375 10.7060547-3.3945314 4.9599609-9.6835939 5.7011719-13.1303712 5.7011719zm-4.5976563-28.2080079c-.6137695.8857422-4.8696289 7.1767578-5.3085938 11.9326172l-.0078125.0859375-.0595703.0625c-.0566406.0595703-5.590332 5.984375-2.7441406 10.1425781 3.2646484 4.7714844 9.3696289 5.484375 12.7177734 5.484375s9.4526367-.7128906 12.7182617-5.484375c2.8457031-4.1582031-2.6875-10.0830078-2.7441406-10.1425781l-.0595703-.0625-.0078125-.0859375c-.4394531-4.7578125-4.6953125-11.0473633-5.3085938-11.9326172z" fill="#b08046"/><path d="m28.3085938 40.3759766c-2.6889648 0-5.421875-1.7626953-5.5371094-1.8369141-.1733398-.1132813-.222168-.3457031-.1088867-.5195313.112793-.1728516.3457031-.2216797.5185547-.109375.0263672.0175781 2.6645508 1.7158203 5.1274414 1.7158203.2070313 0 .375.1679688.375.375s-.1679688.3750001-.375.3750001z" fill="#926134"/><path d="m35.9765625 40.3759766c-.2070313 0-.375-.1679688-.375-.375s.1679688-.375.375-.375c2.46875 0 5.1005859-1.6982422 5.1269531-1.7158203.1738281-.1123047.40625-.0644531.5195313.109375.1123047.1738281.0634766.40625-.109375.5195313-.1152344.0742187-2.8476563 1.836914-5.5371094 1.836914z" fill="#926134"/><path d="m56.9365234 29.7363281c-.2646484 0-.484375-.206543-.5-.4707031-.1630859-2.777832-2.6367188-4.1928711-4.2724609-5.1293945-.6171875-.3525391-1.1044922-.6313477-1.3691406-.9301758-1.9521484-2.2041016.2607422-4.5322266.2832031-4.5551758.0898438-.09375.2207031-.1494141.3564453-.1494141.1308594 0 .2548828.0498047.3476563.1401367.1962891.1889648.203125.5058594.0146484.7050781-.0673828.0693359-1.5947266 1.6816406-.2519531 3.1962891.1552734.1757813.6210938.4428711 1.1152344.7255859 1.7128906.9799805 4.5791016 2.6206055 4.7763672 5.9384766.015625.2749023-.1953125.5117188-.4707031.5283203z" fill="#1ea839"/><path d="m51.4348984 18.7514915c.0627174 0 .1252174.023201.1725273.069313.0996094.0956993.1025391.2539024.0078087.3535118-.0722694.074707-1.7441406 1.8579102-.2578087 3.534668.1816406.2055702.6435471.470211 1.1787071.776371 1.6689415.9550705 4.4619102 2.5537109 4.6503906 5.7363205.0078125.1376991-.0976601.2558594-.2353477.2641602-.0048904.0004883-.0097694.0004883-.0146523.0004883-.1318398 0-.2421875-.1025391-.25-.2353477-.1718788-2.9126015-2.7148399-4.3681602-4.3984375-5.331543-.5976524-.3417969-1.0693321-.6118164-1.3056602-.8789101-1.7929726-2.0244064.2509689-4.1913986.2724571-4.2128868.0488739-.050869.114563-.0761413.1800156-.0761452m-.0000038-.4999961c-.2032814 0-.4003105.0837402-.5405807.2297516-.01754.0173988-2.3901291 2.5152702-.28619 4.890789.2912903.3292007.7945709.6170311 1.4317322.9814301 1.6844673.9638786 3.9915695 2.2840309 4.1475372 4.9269676.0232697.3957825.3523331.7058907.7491302.7058907h.0249901l.0395126-.0029793c.3920288-.0232391.7080498-.3783302.6847-.789978-.2045708-3.4542503-3.1446228-5.1367302-4.9012527-6.141983-.4334793-.2479897-.9247284-.5290298-1.0523605-.6734695-1.1892166-1.3415909.1835213-2.7947998.2425423-2.8560104.2867393-.301487.2761002-.7763901-.0208206-1.061657-.1371996-.133732-.3224107-.2087518-.5189401-.2087518z" fill="#006934"/><path d="m51.4566116 14.7941389s2.6688042 1.2771749 0 3.9459791c0 0-3.402317 1.1048909 0-3.9459791z" fill="#e9e1ce"/><path d="m50.7988281 19.0927734c-.5957031 0-.8642578-.2685547-.9833984-.4936523-.3632813-.6821289.1054688-1.9726563 1.4345703-3.9448242l.1201172-.1791992.1953125.0932617c.0449219.0219727 1.1132813.5444336 1.2998047 1.6376953.1435547.8378906-.2705078 1.75-1.2314453 2.7109375l-.0996094.0610352c-.0146484.0048828-.3574219.114746-.7353516.114746zm.7353516-3.9643554c-1.4941406 2.2685547-1.3945313 3.0170898-1.2773438 3.2358398.0800781.1513672.2626953.2285156.5419922.2285156.21875 0 .4296875-.0488281.5263672-.074707.8076172-.8217773 1.1601563-1.5708008 1.0478516-2.2275391-.1025391-.5981445-.5722656-.9858398-.8388672-1.1621093z" fill="#a18877"/><path d="m50.8931389 18.740118s-1.1438065-1.3618126-3.6105118-3.4761305c0 0-1.1775169 2.7823553 3.6105118 3.4761305z" fill="#e9e1ce"/><path d="m51.5068359 19.081543-.6494141-.09375c-1.8857422-.2734375-3.1162109-.8994141-3.6582031-1.8608398-.5517578-.9780273-.1640625-1.9204102-.1474609-1.9599609l.1337891-.3154297.2597656.2226563c2.4541016 2.1035156 3.5927734 3.4487305 3.6396484 3.5053711zm-4.0839843-3.3652344c-.0419922.2919922-.0380859.7275391.2158203 1.171875.3896484.6850586 1.2734375 1.1889648 2.5742188 1.4750977-.5126954-.5424805-1.4345704-1.4672852-2.7900391-2.6469727z" fill="#a18877"/><path d="m51.7316437 18.740118s1.1438065-1.3618126 3.610508-3.4761305c-.0000001 0 1.1775207 2.7823553-3.610508 3.4761305z" fill="#e9e1ce"/><path d="m51.1181641 19.081543.421875-.5019531c.046875-.0561523 1.1845703-1.4018555 3.6386719-3.5053711l.2597656-.222168.1337891.3144531c.0166016.0400391.4042969.9824219-.1464844 1.9604492-.5419922.9614258-1.7724609 1.5874023-3.6582031 1.8608398zm4.0830078-3.3652344c-1.3554688 1.1796875-2.2773438 2.1049805-2.7900391 2.6474609 1.3017578-.2861328 2.1855469-.7905273 2.5751953-1.4755859.2529297-.4443359.2578125-.8803711.2148438-1.171875z" fill="#a18877"/><path d="m57.3066788 15.6290884s.7906227 3.4046831-5.8500671 3.4046831z" fill="#e9e1ce"/><path d="m51.4570313 19.2836914h-.9267578l6.9433594-4.0410156.0761719.3295898c.0097656.0415039.2265625 1.0239258-.5322266 1.9799805-.913086 1.1489258-2.7832032 1.7314453-5.5605469 1.7314453zm5.6279296-3.2368164-4.6552734 2.7099609c2.5537109-.1489258 3.6865234-.8808594 4.1884766-1.5053711.3613281-.449707.453125-.9018554.4667968-1.2045898z" fill="#a18877"/><path d="m53.6008949 14.7941389s2.4995537 1.4315405-2.1442833 3.9459791c0 0-1.0000724.7525044 2.1442833-3.9459791z" fill="#e9e1ce"/><path d="m51.3535156 19.034668h-.1494141l-.1103515-.1547852c-.0986328-.1855469-.234375-.4394531 2.2988281-4.2250977l.1298828-.1938477.2021484.1162109c.0332031.0185547.8085938.4726563.7978516 1.3393555-.0117188.9672852-1.0029297 1.9912109-2.9462891 3.043457-.0156249.0156251-.111328.0747072-.2226562.0747072zm2.3085938-3.8823242c-1.2080078 1.8134766-1.7265625 2.7138672-1.9472656 3.1586914 1.8857422-1.0966797 2.2998047-1.9003906 2.3076172-2.3959961.0058593-.3569336-.1992188-.6152344-.3603516-.7626953z" fill="#a18877"/><path d="m45.3190956 15.6290884s-.7906227 3.4046831 5.8500671 3.4046831z" fill="#e9e1ce"/><path d="m52.0957031 19.2836914h-.9267578c-2.7773438 0-4.6474609-.5825195-5.5605469-1.7314453-.7587891-.9560547-.5419922-1.9384766-.5322266-1.9799805l.0761719-.3295898zm-6.5546875-3.2368164c.0126953.3022461.1054688.7543945.4667969 1.2045898.5019531.6245117 1.6347656 1.3564453 4.1884766 1.5053711z" fill="#a18877"/><path d="m49.0248795 14.7941389s-2.4995499 1.4315405 2.1442833 3.9459791c0 0 1.0000724.7525044-2.1442833-3.9459791z" fill="#e9e1ce"/><path d="m51.2724609 19.034668c-.1113281 0-.2070313-.0595703-.2539063-.0947266-1.9121094-1.0327148-2.9042969-2.0566406-2.9160156-3.0234375-.0097656-.8666992.7646484-1.3208008.7978516-1.3393555l.2021484-.1162109.1298828.1938477c2.5341797 3.7866211 2.3984375 4.0400391 2.2988281 4.2250977l-.0703125.1323242zm-2.3095703-3.8823242c-.1601563.1474609-.3662109.4057617-.3603516.762207.0087891.4985352.4267578 1.3081055 2.3066406 2.394043-.2216796-.4462891-.7412108-1.3461915-1.946289-3.15625z" fill="#a18877"/><path d="m51.1691628 19.0337715s-1.0674438.822998-4.4151154.822998c0 .0000001 1.2539215-1.8104267 4.4151154-.822998z" fill="#e9e1ce"/><path d="m46.7539063 20.1069336h-.4775391l.2724609-.3925781c.0341797-.0498047.8710938-1.2250977 2.8447266-1.2250977.5771484 0 1.2001953.1025391 1.8496094.3056641l.4589844.1435547-.3808594.2929688c-.0458985.0361327-1.1738282.8754882-4.5673828.8754882zm2.6396484-1.1176758c-.984375 0-1.6357422.3256836-2.015625.6074219 1.5595703-.0522461 2.5273438-.2954102 3.0693359-.4931641-.3671875-.0761718-.7197265-.1142578-1.0537109-.1142578z" fill="#a18877"/><path d="m51.3933372 19.0337715s1.0674438.822998 4.4151154.822998c0 .0000001-1.2539215-1.8104267-4.4151154-.822998z" fill="#e9e1ce"/><path d="m56.2861328 20.1069336h-.4775391c-3.3935547 0-4.5214844-.8393555-4.5673828-.8754883l-.3808594-.2929688.4589844-.1435547c.6494141-.203125 1.2724609-.3056641 1.8496094-.3056641 1.9736328 0 2.8105469 1.175293 2.8447266 1.2250977zm-4.1708984-1.003418c.5410156.1977539 1.5087891.440918 3.0693359.4931641-.3798828-.2817383-1.03125-.6074219-2.015625-.6074219-.3339844 0-.6875.038086-1.0537109.1142578z" fill="#a18877"/><path d="m51.2936096 20.1122303s1.89048-.5399532 1.3491402-1.1521969c-.5413437-.6122456-1.2494125.0737381-1.2494125.0737381s-.6292992-.5229282-1.1154251 0c-.486126.5229302 1.0156974 1.0784588 1.0156974 1.0784588z" fill="#e9e1ce"/><path d="m51.2841797 20.375-.0771484-.0283203c-.2646484-.0981445-1.1386719-.4575195-1.2607422-.9692383-.0429688-.1816406.0097656-.3642578.1494141-.5141602.1894531-.2041016.4267578-.3120117.6875-.3120117.2421875 0 .4550781.0913086.5957031.171875.1630859-.1166992.4326172-.2675781.7412109-.2675781.2685547 0 .5136719.1171875.7099609.3388672.1435547.1625977.1933594.3554688.1376953.5429688-.1640625.5634766-1.2705078.9194336-1.6054688 1.0151367zm-.5009766-1.3237305c-.1210938 0-.2265625.0498047-.3212891.1523438-.0341797.0366211-.03125.050293-.0292969.0581055.0380859.1611328.4746094.4277344.8720703.5869141.5322266-.1640625 1.1279297-.4599609 1.1835938-.6513672.0029297-.0083008.0078125-.0258789-.0332031-.0717773-.1005859-.1142578-.2109375-.1699219-.3349609-.1699219-.2314453 0-.4775391.1865234-.5537109.2583008l-.1601563.1538085-.1728516-.1416016c-.0009765-.0009765-.2177734-.1748047-.4501953-.1748047z" fill="#a18877"/><path d="m13.8342848 16.8334007c-.7964354.5920086-1.76472 2.3141308-1.1727104 3.1105671l3.3165665-.2264194 1.1727114-3.1105671c-.5920106-.7964354-2.5201322-.3655911-3.3165675.2264194z" fill="#e9e1ce"/><path d="m12.6616211 20.1938477c-.0786133 0-.1533203-.0371094-.2006836-.1005859-.3217773-.4331055-.3085938-1.1015625.0375977-1.8828125.2797852-.6303711.7456055-1.2495117 1.1870117-1.5776367.5537109-.4121094 1.5239258-.7109375 2.3066406-.7109375.6289063 0 1.0986328.1855469 1.359375.5361328.0507813.0678711.0634766.1577148.0332031.2373047l-1.1728516 3.1108398c-.034668.0913086-.1191406.1542969-.2167969.1611328l-3.3164063.2260742c-.0058592.0004883-.0112303.0004883-.0170897.0004883zm3.3305664-3.7719727c-.6757813 0-1.5390625.2631836-2.0083008.6123047-.371582.2758789-.784668.8300781-1.027832 1.3789063-.2338867.527832-.2885742.9804688-.1582031 1.2709961l3.0029297-.2045898 1.0620117-2.8173828c-.2241211-.1958009-.5874024-.2402345-.8706055-.2402345z" fill="#796a56"/><path d="m11.930782 13.135499h1.170207v18.514532h-1.170207z" fill="#c6b999" transform="matrix(-.5965654 -.8025645 .8025645 -.5965654 2.010791 45.796318)"/><path d="m5.4355469 28.6347656c-.0761719 0-.1513672-.034668-.2006836-.1005859l-.6982422-.9389648c-.0395508-.0532227-.0561523-.1201172-.046875-.1860352.0097656-.0654297.0454102-.1245117.0986328-.1640625l14.8588867-11.0454102c.0527344-.0395508.1210938-.0541992.1855469-.046875.0654297.0097656.1245117.0454102.1640625.0986328l.6982422.9394531c.0825195.1108398.059082.2670898-.0517578.3496094l-14.8588867 11.0449219c-.0444336.0332031-.0966797.0493164-.1489258.0493164zm-.3486328-1.1376953.3999023.5380859 14.4580078-10.746582-.3999023-.5385742z" fill="#796a56"/><circle cx="20.706406" cy="16.304558" fill="#e9e1ce" r=".948169"/><path d="m20.7070313 17.5029297c-.3774414 0-.7373047-.1811523-.9624023-.4838867-.394043-.5297852-.2832031-1.2817383.246582-1.6762695.512207-.3803711 1.2973633-.2626953 1.6767578.246582.190918.2573242.2705078.5732422.2236328.8896484-.0463867.3164063-.2133789.5961914-.4707031.7871094-.2080079.1547851-.4550782.2368164-.7138672.2368164zm-.0014649-1.8964844c-.1508789 0-.2944336.0473633-.4160156.1376953-.3085938.2299805-.3730469.6679688-.1435547.9770508.2231445.2988281.675293.3681641.9770508.1435547.1494141-.1113281.2470703-.2739258.2739258-.4584961.0273438-.1845703-.019043-.3686523-.1303711-.5185547-.1333008-.1787109-.3378907-.28125-.5610352-.28125z" fill="#796a56"/><circle cx="4.655114" cy="28.235867" fill="#e9e1ce" r=".948169"/><path d="m4.65625 29.434082c-.3779297 0-.737793-.1806641-.9628906-.4838867-.190918-.2563477-.2705078-.5722656-.2236328-.8891602.046875-.3164063.2138672-.5957031.4707031-.7866211.5107422-.3808594 1.296875-.2636719 1.6762695.2470703.190918.2563477.2705078.5722657.2236328.8891602-.0463867.3164063-.2133789.5961914-.4707031.7871094-.2080078.1547852-.4550781.2363281-.7133789.2363281zm-.0019531-1.8964843c-.1503906 0-.2944336.0478516-.4160156.1381836-.1494141.1113281-.246582.2739258-.2739258.4584961s.019043.3681641.1303711.5175781c.1333007.1791992.3378906.2822265.5615234.2822265.1503906 0 .2939453-.0478516.4155273-.1376953.1494141-.1113281.2470703-.2744141.2739258-.4589844.0273438-.184082-.019043-.3681641-.1303711-.5175781-.1333007-.1791992-.3374023-.2822265-.5610351-.2822265z" fill="#796a56"/><path d="m15.8242188 22.4853516c-.1708985-.0356446-.3242188-.1342774-.4316407-.2783203-.0639648-.0874023-.109375-.1845703-.1352539-.2905273-.0844727-.3486328.0517578-.7080078.3642578-.9619141.331543-.2666016.8022461-.2749023 1.2578125-.2832031.0751953-.0014648.1733398-.003418.2719727-.0083008-.1064453-.0253906-.199707-.0927734-.2563477-.1875-.1176758-.1899414-.0585938-.4453125.1342773-.5654297.0493164-.03125.3154297-.1894531.6108398-.1894531.1074219 0 .2084961.0205078.2998047.0610352.128418.0576172.3525391.2089844.4189453.5825195.0668945.3818359-.0517578.6235352-.1635742.7587891-.2949219.3583984-.8061523.3676758-1.3007813.3764648-.1108398.0019531-.237793.0043945-.3569336.012207.0097656.0063477.0200195.0131836.0292969.0200195.1826172.1381836.2197266.3984375.0834961.5800781-.1875.25-.4311523.3876953-.6865234.3876953z" fill="#e9e1ce"/><path d="m17.640398 19.9704971c.0665932.0000038.1340561.0111694.1979542.0395203.1016998.0454483.2306385.151741.2745399.3983498.0404987.2307587.0035286.4180412-.1105003.5559196-.2217999.2691383-.6546612.2769012-1.1127911.2850685-.3579597.0064201-.7279091.0133629-.9037094.1552124-.1351795.1088791-.1972799.2489204-.1667795.3748589.0171194.0735512.0653.1276207.12117.1388283.0078201.0016212.0158377.0024223.0240297.0024223.0679798 0 .1477509-.0551796.2228603-.1555786.0324612-.0431023.0818615-.0658607.1318035-.0658569.0341969 0 .0686531.0106735.0980854.032795.07197.0543594.0872402.1576691.0330715.2298889-.1396046.1862259-.3128242.2873116-.4862185.2873116-.0299044 0-.0598412-.0030136-.0895824-.0091095-.1132097-.0233116-.2114801-.0888824-.2811003-.1825409-.0426493-.0573807-.0746193-.1251106-.0930796-.20047-.0613804-.2523918.0431204-.5170212.2793398-.7081909.2634296-.2125893.6907806-.2202492 1.1043396-.2276497.3634701-.0065193.7398415-.0134277.8651505-.165699.0507202-.0612793.0638294-.1565094.0402298-.2903709-.014389-.0843811-.0428295-.1371498-.0839806-.1548996-.0181656-.0081596-.0403233-.0117302-.0649147-.0117264-.0955715 0-.2278175.053894-.3046246.1014557-.0270729.0167503-.0574036.0247803-.0873528.0247803-.0551071 0-.1089096-.0271988-.1386471-.077301-.0475693-.0768967-.0246906-.1777878.0520096-.2256203.030535-.0192911.2496055-.1514055.4786971-.1513979m.0000229-.5c-.0000191 0-.0000191 0-.0000191 0-.3561001-.0000191-.6608505.1750488-.7457695.2286987-.2494869.1555748-.3591938.4553909-.288229.7289467-.4001789.015892-.8173656.0705795-1.1409216.3316841-.3850698.3116417-.5577497.7771988-.45117 1.2154388.0344.1404305.0941.2682114.1776295.3805923.1438999.1935883.3504305.3264084.5815506.3740005.0628395.0128784.1267796.0193787.1904202.0193787.3359098 0 .6506701-.1730995.8862886-.4874001.1143761-.1524887.152853-.3390808.1219254-.513916.5067787-.0099411 1.0648232-.0393791 1.4161263-.4656448.1448288-.1751289.3006191-.4845581.2171097-.9603386-.0869904-.4886818-.39007-.6911201-.5629997-.7684097-.1245938-.0552786-.2594109-.0830268-.4019414-.0830306z" fill="#796a56"/><path d="m11.9628611 21.7558327s1.0960732 1.1406479 1.1760473 1.7195034.8469524 2.319355.1110868 3.6959972.2177429 2.8324356.2177429 2.8324356l3.6046953 6.4473114-2.335145 3.549427s-2.8214436-4.4681015-3.6041594-7.0422249c-.7827148-2.5741234-1.0264759-4.3188057-1.0264759-4.3188057s-2.2677236-1.8068295-.8045721-3.3851681l1.7340574-.8260593c.0000001.0000001-.2493247-4.3919219.9267227-2.6724166z" fill="#ebcf86"/><path d="m14.7373047 40.2509766c-.0805664.0166016-.1655273-.0439453-.2114258-.1162109-.1157227-.1835938-2.8481445-4.5273438-3.6318359-7.1035156-.6767578-2.2260742-.9570313-3.8583984-1.0205078-4.2607422-.2822266-.2446289-1.2275391-1.1401367-1.3076172-2.2060547-.0410156-.5419922.1450195-1.0400391.5532227-1.4799805.0214844-.0234375.046875-.0419922.0756836-.0556641l1.5830078-.7543945c-.0351563-.7592773-.0664063-2.5454102.3769531-3.0146484.1196289-.1264648.2495117-.1533203.3378906-.1533203.2246094 0 .4394531.1616211.6767578.5083008.0917969.0908203 1.1289063 1.1855469 1.2167969 1.8261719.015625.1132813.0605469.2744141.1137695.4697266.2241211.8237305.5996094 2.2021484-.0292969 3.378418-.6586914 1.2314453.1972656 2.5644531.2060547 2.5776367l3.6137695 6.4624023c.0454102.0810547.0419922.1816406-.0092773.2597656l-2.3349609 3.5498047c-.0463868.0703124-.125.1123046-.2089844.1123046zm-5.2832031-14.7919922c-.2910156.328125-.4189453.6772461-.3896484 1.0664063.074707 1.0087891 1.1870117 1.9101563 1.1977539 1.9189453.050293.0400391.0830078.0976563.0917969.1606445.0024414.0170898.2514648 1.7578125 1.0185547 4.2807617.6420898 2.1113281 2.7099609 5.5722656 3.3710938 6.6503906l2.0361328-3.0957031-3.5302734-6.3144531c-.0332031-.0498047-1.0166016-1.5825195-.2202148-3.0722656.5356445-1.0014648.1928711-2.2597656-.0117188-3.0117188-.0600586-.2211914-.1088867-.4042969-.1264648-.5327148-.0498047-.3623047-.706543-1.1616211-1.1083984-1.5800781-.2075195-.2973633-.2978516-.3232422-.2983398-.3232422-.1640625.1430664-.2753906 1.4589844-.1987305 2.8081055.0058594.1015625-.050293.1962891-.1420898.2397461z" fill="#926134"/><path d="m10.7341557 22.4754848s-2.6736927.9992123-2.4292793 2.0206909c.2444143 1.0214806 1.1133299 2.7419338 1.3242149 2.3592415.210886-.3826942 2.1209306-.6548366 1.1050644-4.3799324z" fill="#ebcf86"/><path d="m9.5498047 27.1601563c-.5947266-.0004883-1.3427734-1.9990234-1.4882813-2.605957-.28125-1.1767578 2.1044922-2.1328125 2.5854492-2.3129883.0654297-.0234375.1386719-.0200195.2011719.0117188.0629883.0322266.1088867.0888672.1274414.1567383.8706055 3.1938477-.3496094 4.0244141-.9360352 4.4233398-.0727539.0498047-.1728516.1176758-.1938477.1469727-.0620116.1132811-.1708983.1801757-.2958983.1801757zm1.0136719-4.3481446c-.9824219.4091797-2.1376953 1.1162109-2.015625 1.6259766.1894531.7915039.7143555 1.8520508.9750977 2.1572266.0644531-.059082.1445313-.1132813.2353516-.175293.5112304-.3481446 1.4482421-.9858399.8051757-3.6079102z" fill="#926134"/><path d="m10.3525391 26.5200195c-.1118164 0-.2133789-.0751953-.2421875-.1879883l-.5180664-2.0268555c-.0341797-.1337891.0463867-.2700195.1801758-.3041992.137207-.0336914.2700195.0463867.3041992.1801758l.5180664 2.0268555c.0341797.1337891-.0463867.2700195-.1801758.3041992-.0209961.0053711-.0415039.0078125-.0620117.0078125z" fill="#926134"/><path d="m51.7624588 21.7558327s-1.0960732 1.1406479-1.1760445 1.7195034c-.0799751.5788555-.8469543 2.319355-.1110878 3.6959972s-.2177429 2.8324356-.2177429 2.8324356l-3.6046944 6.4473114 2.335144 3.549427s2.8214417-4.4681015 3.6041603-7.0422249c.7827148-2.5741234 1.026474-4.3188057 1.026474-4.3188057s2.2677231-1.8068295.8045731-3.3851681l-1.7340584-.8260593c.0000001.0000001.2493249-4.3919219-.9267234-2.6724166z" fill="#ebcf86"/><path d="m48.9882813 40.2509766c-.0839844 0-.1621094-.0419922-.2089844-.1123047l-2.3349609-3.5498047c-.0507813-.078125-.0546875-.1787109-.0087891-.2597656l3.6044922-6.4472656c.0166016-.027832.8701172-1.3671875.2148438-2.5927734-.6289063-1.175293-.2539063-2.5527344-.0302734-3.3759766.0527344-.1962891.0976563-.3579102.1132813-.4716797.0888672-.6411133 1.1269531-1.7358398 1.2441406-1.8588867.2109375-.3144531.4267578-.4760742.6513672-.4760742.0878906 0 .2177734.0268555.3369141.1533203.4433594.4692383.4121094 2.2553711.3769531 3.0146484l1.5830078.7543945c.0283203.0136719.0546875.0322266.0761719.0556641.4082031.4399414.59375.9379883.5527344 1.4799805-.0800781 1.065918-1.0253906 1.9614258-1.3066406 2.2060547-.0644531.4023438-.3447266 2.034668-1.0214844 4.2607422-.7832031 2.5761719-3.515625 6.9199219-3.6318359 7.1035156-.0449219.0712891-.1240234.1152344-.2089844.1162109-.0000002 0-.0009768 0-.0019533 0zm-2.0429688-3.8105469 2.0361328 3.0957031c.6621094-1.078125 2.7294922-4.5400391 3.3710938-6.6503906.7675781-2.5229492 1.0166016-4.2636719 1.0185547-4.2807617.0097656-.0629883.0419922-.1206055.0917969-.1606445.0117188-.0087891 1.1230469-.909668 1.1982422-1.918457.0292969-.3896484-.0986328-.7387695-.390625-1.0668945l-1.6884766-.8051758c-.0917969-.043457-.1474609-.1381836-.1425781-.2397461.0751953-1.3300781-.03125-2.6279297-.2285156-2.809082-.0048828.0175781-.0927734.0737305-.2421875.2919922-.4277344.4506836-1.0849609 1.25-1.1347656 1.6123047-.0175781.1289063-.0664063.3125-.1269531.5351563-.2041016.7514648-.5458984 2.0087891-.0107422 3.0087891.7958984 1.4902344-.1875 3.0229492-.2294922 3.0874023z" fill="#926134"/><path d="m52.9911652 22.4754848s2.6736946.9992123 2.4292793 2.0206909c-.2444153 1.0214806-1.1133308 2.7419338-1.3242149 2.3592415-.2108841-.3826942-2.1209298-.6548366-1.1050644-4.3799324z" fill="#ebcf86"/><path d="m54.1757813 27.1601563c-.125 0-.234375-.0673828-.2978516-.1845703-.0185547-.0249023-.1191406-.0927734-.1923828-.1425781-.5859375-.3989259-1.8066406-1.2294923-.9355469-4.4233399.0185547-.0678711.0644531-.1245117.1269531-.1567383.0634766-.0317383.1367188-.034668.2021484-.0117188.4804688.1801758 2.8662109 1.1362305 2.5849609 2.3129883-.1455077.6069336-.8945311 2.6059571-1.4882811 2.6059571zm-1.0136719-4.3481446c-.6435547 2.6220703.2939453 3.2597656.8046875 3.6079102.0917969.0615234.1708984.1162109.2353516.175293.2607422-.3061523.7861328-1.3662109.9755859-2.1572266.1220703-.5097656-1.0332031-1.2167969-2.015625-1.6259766z" fill="#926134"/><path d="m53.3730469 26.5200195c-.0205078 0-.0410156-.0024414-.0615234-.0078125-.1337891-.0341797-.2148438-.1704102-.1806641-.3041992l.5175781-2.0268555c.0351563-.1337891.171875-.2148438.3037109-.1801758.1337891.0341797.2148438.1704102.1806641.3041992l-.5175781 2.0268555c-.0292969.112793-.1308594.1879883-.2421875.1879883z" fill="#926134"/><path d="m44.1016273 29.4918079s5.492897 6.2533016 6.5699615 7.759573c1.0770683 1.5062714.7794952 4.6557426.7794952 4.6557426l-.7794952.6846695s-3.0580025.1369324-6.5699615-6.9836159z" fill="#ebcf86"/><path d="m50.6591797 42.8417969c-.3339844 0-3.3671875-.1992188-6.7822266-7.1230469l-.0253906-.1103516v-6.7802734l.4375.4985352c.2246094.2558594 5.5136719 6.2797852 6.5859375 7.7788086 1.1191406 1.5644531.8378906 4.6933594.8251953 4.8251953l-.0097656.0986328-.9199219.8085938zm-6.3076172-7.2919922c3.0673828 6.1923828 5.7392578 6.7402344 6.2314453 6.7880859l.6269531-.5517578c.0371094-.5332031.1660156-3.1201172-.7412109-4.3896484-.8798828-1.2304688-4.7949219-5.7270508-6.1171875-7.2397461z" fill="#926134"/><path d="m20.0679073 29.4918079s-5.492897 6.2533016-6.5699625 7.759573-.7794924 4.6557426-.7794924 4.6557426l.7794924.6846695s3.0580034.1369324 6.5699625-6.9836159z" fill="#ebcf86"/><path d="m13.5107422 42.8417969c-.0004883 0-.0004883 0-.0004883 0l-.1108398-.0039063-.9208984-.8085938-.0092773-.0986328c-.012207-.1318359-.2929688-3.2607422.8251953-4.8251953 1.0722656-1.4990234 6.3608398-7.5229492 6.5854492-7.7788086l.4379883-.4985352-.0258789 6.890625c-3.4145509 6.9228517-6.4467775 7.123047-6.7812501 7.123047zm-.5512695-1.0556641.6279297.5517578c.4916992-.0478516 3.1630859-.5957031 6.2304688-6.7880859v-5.3930664c-1.3227539 1.5126953-5.2368164 6.0092773-6.1166992 7.2397461-.9082032 1.2714844-.779297 3.8564453-.7416993 4.3896484z" fill="#926134"/><path d="m38.1005707 26.2020969s5.3067169 1.098772 7.0921555 3.289711l-1.0911026 8.0334415s7.3391571 11.0459785 1.88414 15.3365669z" fill="#009644"/><path d="m45.9853516 53.1123047c-.0253906 0-.0507813-.0039063-.0761719-.0117188-.0791016-.0253906-.1396484-.0878906-.1630859-.1669922l-7.8847656-26.6606445c-.0253906-.0839844-.0039063-.175293.0556641-.2402344.0595703-.0644531.1474609-.0952148.234375-.0751953.2197266.0454102 5.4140625 1.1420898 7.234375 3.3764648.0439453.0532227.0634766.1225586.0546875.1914063l-1.078125 7.9414063c.7099609 1.0908203 7.1650391 11.3544922 1.7773438 15.5917969-.0439455.0351562-.098633.0537109-.154297.0537109zm-7.5234375-26.5703125 7.6542969 25.8818359c4.6601563-4.2675781-2.1523438-14.6533203-2.2226563-14.7597656-.0341797-.0507813-.0478516-.1123047-.0400391-.171875l1.0761719-7.9243164c-1.4755859-1.6992188-5.2197266-2.7231445-6.4677734-3.0258789z" fill="#006934"/><path d="m35.8611374 26.2020969s3.2388 8.3386288 4.1736565 12.158762c0 0 6.2490349 11.0253639 2.9757309 16.0495682l2.9752388-1.5486107s2.6463928-5.6967545-3.7935638-14.8572998c0 0-1.8041916-6.9282055-4.091629-11.8024197z" fill="#fe0"/><path d="m43.0107422 54.7851563c-.1035156 0-.2050781-.0429688-.2773438-.1230469-.1152344-.1259766-.1298828-.3134766-.0371094-.4570313 3.1132813-4.7773438-2.9257813-15.5507813-2.9873047-15.6591797-.0166016-.0292969-.0302734-.0615234-.0380859-.0957031-.9189453-3.7519531-4.1269531-12.0292969-4.1591797-12.1123047-.0449219-.1152344-.0292969-.2456055.0400391-.3476563.0703125-.1020508.1855469-.1630859.3095703-.1630859h2.2392578c.1455078 0 .2773438.0839844.3398438.2158203 2.15625 4.5957031 3.9052734 11.0771484 4.0976563 11.8017578 6.4394531 9.1982422 3.8984375 14.9355469 3.7871094 15.1757813-.0341797.0751953-.09375.1367188-.1669922.1748047l-2.9746094 1.5478516c-.0546875.0283203-.1142579.0419922-.1728516.0419922zm-2.6240234-16.5634766c.4658203.8310547 5.4853516 10.0039063 3.4775391 15.3212891l1.8251953-.9492188c.3056641-.8291016 1.9326172-6.2128906-3.8037109-14.3730469-.0263672-.0371094-.0449219-.078125-.0566406-.1210938-.0175781-.0683594-1.7685547-6.7485352-3.9677734-11.5224609h-1.4541016c.7138671 1.8666993 3.1699217 8.375 3.9794921 11.6445313z" fill="#e75513"/><path d="m45.1927261 29.4918079 1.7854386 1.004179-1.4382706 8.2160187-1.4382706-1.1867561z" fill="#fe0"/><path d="m45.5400391 38.9619141c-.0576172 0-.1132813-.0195313-.1591797-.0576172l-1.4384766-1.1865234c-.0664063-.0546875-.1005859-.140625-.0888672-.2255859l1.0908203-8.0341797c.0117188-.0820313.0625-.1533203.1367188-.1899414.0742188-.0375977.1621094-.0356445.2333984.0058594l1.7861328 1.0043945c.0927734.0517578.1425781.15625.1240234.2607422l-1.4384766 8.2158203c-.015625.0878906-.0761719.1611328-.1591797.1914063-.0283202.0107421-.0576171.0156249-.0869139.0156249zm-1.171875-1.5410157 1 .8251953 1.3339844-7.6186523-1.3115234-.7373047z" fill="#e75513"/><path d="m44.8232422 38.9619141c-.0839844 0-.1669922-.0429688-.2138672-.1201172l-.7216797-1.1865234-2.9257813-6.8789063c-.0537109-.1269531.0058594-.2739258.1328125-.3276367.1259766-.0541992.2724609.0048828.328125.1323242l2.9091797 6.8466797.7050781 1.1542969c.0712891.1181641.0341797.2714844-.0839844.34375-.0410155.024414-.0849608.0361328-.1298827.0361328z" fill="#006934"/><path d="m26.0689621 26.2020969s-5.3067188 1.098772-7.0921574 3.289711l1.0911026 8.0334415s-7.3391562 11.0459785-1.88414 15.3365669z" fill="#009644"/><path d="m18.1835938 53.1123047c-.0551758 0-.1098633-.0185547-.1547852-.0537109-5.387207-4.2373047 1.0683594-14.5009766 1.7788086-15.5917969l-1.0786133-7.9414063c-.0092773-.0688477.0102539-.1381836.0537109-.1914063 1.8208008-2.234375 7.0151367-3.3310547 7.2353516-3.3764648.0893555-.0195313.175293.0107422.2348633.0751953.0595703.0649414.0805664.15625.0556641.2402344l-7.8852539 26.6606445c-.0234375.0791016-.0849609.1416016-.1640625.1669922-.0249024.0078125-.050293.0117188-.0756836.0117188zm1.055664-23.5444336 1.0761719 7.9243164c.0083008.0595703-.0058594.1210938-.0395508.171875-.0703125.1064453-6.8813477 10.4941406-2.2231445 14.7597656l7.6547852-25.8818359c-1.2480469.3027344-4.9926758 1.3266601-6.4682618 3.0258789z" fill="#006934"/><path d="m28.3083935 26.2020969s-3.2387981 8.3386288-4.1736565 12.158762c0 0-6.249033 11.0253639-2.975729 16.0495682l-2.9752407-1.5486107s-2.6463919-5.6967545 3.7935658-14.8572998c0 0 1.8041916-6.9282055 4.091629-11.8024197z" fill="#fe0"/><path d="m21.1591797 54.7851563c-.059082 0-.1181641-.0136719-.1728516-.0419922l-2.9755859-1.5478516c-.0737305-.0380859-.1323242-.0996094-.1674805-.1748047-.1113281-.2402344-2.6518555-5.9775391 3.7885742-15.1757813.1923828-.7246094 1.940918-7.2060547 4.0976563-11.8017578.0615234-.1318359.1938477-.2158203.3393555-.2158203h2.2397461c.1235352 0 .2397461.0610352.3095703.1630859s.0849609.2324219.0400391.3476563c-.0322266.0830078-3.2407227 8.359375-4.1591797 12.1123047-.0083008.0341797-.0209961.0664063-.0380859.0957031-.0610352.1083984-6.0327148 10.765625-3.0380859 15.5800781.0795898.0693359.1298828.1708984.1298828.2841797.0004883.2099609-.1513672.3818359-.3837891.375-.0034181.0000001-.006836.0000001-.0097657.0000001zm-2.6791992-2.1914063 1.8256836.9501953c-2.0092773-5.3173828 3.012207-14.4912109 3.4770508-15.3222656.809082-3.2695313 3.265625-9.777832 3.9799805-11.6445313h-1.4545898c-2.199707 4.7753906-3.9501953 11.4541016-3.9677734 11.5224609-.0112305.0429688-.0302734.0839844-.0561523.1210938-5.7363283 8.1591797-4.1108401 13.5429688-3.8041994 14.3730469z" fill="#e75513"/><path d="m18.9768047 29.4918079-1.7854366 1.004179 1.4382687 8.2160187 1.4382705-1.1867561z" fill="#fe0"/><path d="m18.6293945 38.9619141c-.0292969 0-.0585938-.0048828-.0864258-.015625-.0834961-.0302734-.1445313-.1035156-.159668-.1914063l-1.4379883-8.2158203c-.0185547-.1044922.03125-.2089844.1235352-.2607422l1.7851563-1.0043945c.0717773-.0410156.1591797-.043457.2338867-.0058594.0742188.0366211.1254883.1079102.1362305.1899414l1.0913086 8.0341797c.0117188.0849609-.0214844.1708984-.0883789.2255859l-1.4384766 1.1865234c-.0454101.038086-.1020508.0576173-.1591797.0576173zm-1.1611328-8.3344727 1.3334961 7.6186523.9995117-.8251953-1.0229492-7.5307617z" fill="#e75513"/><path d="m19.3466797 38.9619141c-.0444336 0-.0893555-.0117188-.1298828-.0361328-.1181641-.0722656-.1552734-.2255859-.0839844-.34375l.7211914-1.1865234 2.8930664-6.8144531c.0541992-.1269531.2016602-.1865234.3276367-.1323242.1269531.0537109.1865234.2006836.1323242.3276367l-2.9091797 6.8466797-.7373047 1.21875c-.0473632.0771483-.1298827.1201171-.2138671.1201171z" fill="#006934"/><path d="m22.498579 39.5319557s-3.7854328 7.3261604-3.1516953 10.7956429c.0000001 0-2.7247237-3.0136872 3.1516953-10.7956429z" fill="#f09400"/><path d="m41.6457138 39.5319557s3.1575356 5.2482414 3.130909 10.7956429c0 0 2.7218361-4.2468949-3.130909-10.7956429z" fill="#f09400"/><path d="m40.518364 18.6097832s4.7136688-13.6097832-8.4335976-13.6097832-8.4700794 13.6097832-8.4700794 13.6097832z" fill="#e53828"/><path d="m40.5185547 18.8598633h-16.9038086c-.1069336 0-.2016602-.0678711-.2363281-.1689453-.0917969-.2666016-2.2124023-6.581543.6992188-10.6611328 1.5537109-2.1762696 4.2475585-3.2797852 8.0073241-3.2797852 3.7578125 0 6.4482422 1.1025391 7.9960938 3.2768555 2.9052734 4.0795898.7666016 10.3979492.6738281 10.6650391-.0351562.1005859-.1298828.1679687-.2363281.1679687zm-16.7207031-.5h16.5380859c.3173828-1.0292969 1.8388672-6.5317383-.6630859-10.0444336-1.4482422-2.0341797-4.0019532-3.0654297-7.5878907-3.0654297-3.5878906 0-6.1450195 1.0327148-7.5991211 3.0688477-2.5083007 3.512207-1.0029296 9.0107421-.6879882 10.0410156z" fill="#e30012"/><path d="m37.7559738 15.3840199s3.380455 1.011961 5.3959885 2.6985626c0 0 .2099152 3.2607765-1.5536766 4.9098454-1.7635918 1.6491604-3.5691071 4.5573807-3.5691071 4.5573807s-.9662476-.7831688-.2732048-2.5765533 0-9.5892354 0-9.5892354z" fill="#ebcf86"/><path d="m38.0917969 27.9223633-.2197266-.1782227c-.0449219-.0366211-1.0996094-.9204102-.3496094-2.8613281.6650391-1.7192383-.0087891-9.3994141-.015625-9.4770508l-.0322266-.3671875.3525391.1054688c.140625.0419922 3.4541016 1.046875 5.4853516 2.746582l.0820313.0688477.0068359.1069336c.0097656.1381836.1972656 3.3984375-1.6318359 5.1083984-1.71875 1.6074219-3.5097656 4.4780273-3.5283203 4.5068359zm-.0546875-12.1845703c.1298828 1.6010742.5771484 7.7080078-.0478516 9.3256836-.4199219 1.0849609-.1865234 1.7460938.0126953 2.0644531.5068359-.7832031 1.9667969-2.9536133 3.4257813-4.3183594 1.4824219-1.3857422 1.4941406-4.0429688 1.4794922-4.6054688-1.578125-1.2807617-3.975586-2.1645507-4.8701172-2.4663085z" fill="#926134"/><path d="m26.4413719 15.3840199s-3.3804531 1.011961-5.395937 2.6985626c0 0-.2099571 3.2607765 1.5536251 4.9098454 1.7635918 1.6491604 3.5692062 4.5573807 3.5692062 4.5573807s.9662476-.7831688.2731056-2.5765533c-.6930407-1.7933847.0000001-9.5892354.0000001-9.5892354z" fill="#ebcf86"/><path d="m26.1054688 27.9223633-.1494141-.2407227c-.0180664-.0288086-1.809082-2.8994141-3.527832-4.5068359-1.8286133-1.7099609-1.6411133-4.9702148-1.6323242-5.1083984l.0068359-.1069336.0820313-.0688477c2.0317383-1.699707 5.3447266-2.7045898 5.4848633-2.7460938l.3535156-.105957-.0327148.3671875c-.0068359.0776367-.6801758 7.7583008-.015625 9.4775391.7495117 1.9404297-.3037109 2.8242188-.3491211 2.8608398zm-4.8144532-9.7182617c-.0151367.5625-.003418 3.2197266 1.4790039 4.6054688 1.4589844 1.3647461 2.9189453 3.534668 3.4257813 4.3183594.1992188-.3183594.4316406-.9799805.012207-2.0644531-.6245117-1.6176758-.1777344-7.7246094-.0473633-9.3256836-.8945312.3017577-3.2919922 1.1855467-4.8696289 2.4663085z" fill="#926134"/><path d="m39.6102638 19.2508526c0 3.7187576-3.37743 9.7427711-7.5437393 9.7427711s-7.5437393-6.0240135-7.5437393-9.7427711c0-3.7187872 3.37743-6.7334557 7.5437393-6.7334557s7.5437393 3.0146685 7.5437393 6.7334557z" fill="#ebcf86"/><path d="m32.0664063 29.2436523c-4.3022461 0-7.793457-6.0463867-7.793457-9.9926758 0-3.8505859 3.4960938-6.9833984 7.793457-6.9833984 4.2978516 0 7.7939453 3.1328125 7.7939453 6.9833984 0 3.9462891-3.491211 9.9926758-7.7939453 9.9926758zm0-16.4760742c-4.0214844 0-7.293457 2.9082031-7.293457 6.4833984 0 3.6621094 3.3378906 9.4926758 7.293457 9.4926758 3.9560547 0 7.2939453-5.8305664 7.2939453-9.4926758 0-3.5751952-3.272461-6.4833984-7.2939453-6.4833984z" fill="#926134"/><path d="m37.3542786 20.3315659s-1.4240761-.1404209-2.7258072 1.5782089c0 0 1.2809715.6622238 1.9796562.191433.6986847-.4708844.7686233-1.3690606.746151-1.7696419z" fill="#fff"/><path d="m33.8631706 20.562418s2.134655-2.5366993 3.8928032-1.0104961c0 0-1.3973694-.9798393-3.227375.7349396 0-.0000001-.3326607.3062553-.6654282.2755565z" fill="#231815"/><path d="m37.3542786 20.3315659c-1.6357079-.4460278-2.7258072 1.5782089-2.7258072 1.5782089 1.5522614-1.3839931 2.3772202-1.5628128 2.7115974-1.5586376-.1496544 2.8355045-2.7115974 1.5586376-2.7115974 1.5586376 2.7947388 1.561697 2.8946075-1.5310917 2.8946075-1.5310917-.1114578-.0652962-.1517677-.0602875-.1688003-.0471172z" fill="#231815"/><path d="m34.6284714 21.9097748s.4522858-2.1922035 2.653347-1.8066483c0 0-1.963028-1.0258255-2.653347 1.8066483z" fill="#231815"/><path d="m36.8427353 20.4091034s-.3094864-.1566525-.9457893.302639c-.6363029.4592896-.9740067.8488331-.9740067.8488331s.8242531.5512047 1.3357964.2526474.6438598-.868496.5839996-1.4041195z" fill="#231815"/><path d="m26.9223785 20.3170052s1.4240761-.1403294 2.7258091 1.5783005c0 0-1.2809734.6621304-1.9796581.1913395s-.7686233-1.3689671-.746151-1.76964z" fill="#fff"/><path d="m30.4134846 20.5479488s-2.1346512-2.5367165-3.8928013-1.0104942c0 0 1.3973694-.9798698 3.2273731.7349377 0 0 .3326645.3061638.6654282.2755565z" fill="#231815"/><path d="m26.9223785 20.3170052c1.6357079-.4460278 2.7258091 1.5783005 2.7258091 1.5783005-1.5522633-1.3839931-2.3772221-1.5628128-2.7115993-1.5586376.1496544 2.8355045 2.7115993 1.5586376 2.7115993 1.5586376-2.7947388 1.5616989-2.8946095-1.5310917-2.8946095-1.5310917.1114598-.0652943.1517697-.0602875.1688004-.0472088z" fill="#231815"/><path d="m29.6481876 21.8953056s-.4522858-2.1922951-2.6533508-1.8066483c0 .0000001 1.9630299-1.0258521 2.6533508 1.8066483z" fill="#231815"/><path d="m27.4340229 20.3946362s.3093834-.1567459.9456882.3026371c.6363029.4592915.9740067.848835.9740067.848835s-.8242531.5512028-1.3357944.2526455c-.5115433-.2985573-.6438637-.868496-.5839005-1.4041176z" fill="#231815"/><path d="m34.5889664 26.4075184s.6817551 1.5929546 2.9165764 2.1744881c0 0-2.4866638.7515392-3.8661957-1.6741104z" fill="#ececed"/><path d="m36.6152344 28.9418945c-.9609375 0-2.2949219-.331543-3.1933594-1.9106445l-.1269531-.2246094 1.4150391-.7456055.1083984.2475586c.0263672.0605469.6708984 1.4907227 2.75 2.03125l.8613281.2241211-.8515625.2573242c-.0166016.0048829-.40625.1206055-.9628906.1206055zm-2.6240235-1.9370117c.6992188 1.0673828 1.6396484 1.3793945 2.3916016 1.4296875-1.1064453-.5419922-1.6689453-1.3051758-1.8974609-1.6894531z" fill="#868686"/><path d="m34.4051476 22.3592339s-.3528175 2.7817116 0 3.1089268c.3528214.3273106.3763008 1.0363731.3763008 1.0363731l-.8899574.9420452s-1.8119659 9.1515846-.4842339 10.143898c1.858223 1.3888168 3.7913208-.5014915 1.7905006-3.068119-1.2423744-1.5935097 2.3853836-2.4544029 3.4424324-.8181343 0 0-.1470337.5454559-.7092667.8181343 0 0-1.4840393-.1636086 0 1.2545166 1.4841385 1.4181252-1.1142883 6.399086-5.7713814 3.7810783-4.657093-2.6181068-1.9247341-11.9591732-1.9247341-11.9591732l-.8809891-.9644909s-.0074577-.7750988.46982-1.0334969c0 0 .4140911-2.6077156 0-3.2415581" fill="#ebcf86"/><path d="m34.7216797 40.6855469c-.8164063 0-1.737793-.234375-2.7456055-.8007813-4.5239258-2.5429688-2.546875-10.7441406-2.1582031-12.1865234l-.8374023-.9169922-.0014648-.1430664c-.0009766-.0927734.0073242-.8486328.4985352-1.2543945.1699219-1.1552734.2299805-2.5170898.0322266-2.8193359-.1132813-.1733398-.0644531-.4057617.1088867-.519043.1733398-.1142578.40625-.0654297.519043.1088867.4575195.7001953.1586914 2.8598633.0566406 3.5048828l-.0292969.1831055-.1625977.0878906c-.1655273.0898438-.2416992.3701172-.2651367.5678711l.9165039 1.003418-.059082.2021484c-.0263673.0908203-2.5947267 9.0854492 1.748535 11.5268555 2.9750977 1.6748047 4.5883789-.0673828 5.012207-.6396484.6806641-.9189453.8222656-2.0585938.3164063-2.5419922-.4560547-.4355469-.9482422-.9990234-.7177734-1.4941406.1777344-.3798828.6484375-.40625.8935547-.4130859.1884766-.1142578.3007813-.2695313.3642578-.3847656-.4121094-.4677734-1.1191406-.5927734-1.6865234-.5498047-.5732422.0458984-1.0585938.2714844-1.1806641.5488281-.0644531.1464844-.0136719.3271484.1494141.5361328 1.3007813 1.6689453 1.0351563 3.0039063.4121094 3.6396484-.5605469.5722656-1.6181641.7841797-2.7236328-.0400391-1.4072266-1.0527344-.0947266-8.3164063.3408203-10.5175781l.0214844-.105957.8476563-.8979492c-.0292969-.2075195-.1035156-.4980469-.2421875-.6269531-.328125-.3041992-.3671875-1.4584961-.1171875-3.4311523.0263672-.2055664.2148438-.3510742.4189453-.324707.2060547.0258789.3515625.2138672.3251953.4194336-.1464844 1.1572266-.2158203 2.5683594-.0859375 2.824707.4228516.3833008.4619141 1.171875.4648438 1.2607422l.0048828.1557617-.9228516.9775391c-.8359375 4.2651367-1.3037109 9.144043-.6064453 9.6645508.6386719.4794922 1.3398438.5244141 1.7392578.1162109.4433594-.4521484.4707031-1.4482422-.46875-2.6533203-.453125-.5810547-.3476563-1.0634766-.2441406-1.2988281.2392578-.543457.9316406-.9243164 1.8076172-.9946289.8349609-.0639648 1.9277344.1708984 2.4892578 1.0415039l.0908203.1396484-.0429688.1611328c-.0078125.0292969-.2001953.7148438-.9091797 1.0585938l-.0957032.0458982-.1074219-.0107422c-.0673828-.0087891-.1503906-.0048828-.2128906.0039063.0498047.0976563.1787109.2880859.5117188.6074219.7958984.7597656.6962891 2.2773438-.2304688 3.5302734-.6796875.9179687-1.7939453 1.6474609-3.2373047 1.6484375z" fill="#926134"/><path d="m33.5193214 16.7736702c-.2449875-.2465248-.2881203-1.3558712-.2881203-1.3558712s-.341732.5341291-.0967445 1.1915207c.2448883.657402 0 .9450054-.4549065 1.1093559-.4548073.1643505-.4373703-.2465267-.4373703-.2465267v-1.602396l.1575127-.780654c-.209919-.2876129-.3149261-1.2326183-.3149261-1.2326183s-.1050091.9450054-.3149281 1.2326183l.1575146.780654v1.602396s.0174332.4108772-.4373703.2465267c-.4548054-.1643505-.6997948-.4519539-.4548054-1.1093559.2448864-.6573915-.0968475-1.1915207-.0968475-1.1915207s-.0431328 1.1093464-.2881203 1.3558712c-.2448864.2465248-.2798557.8103905.3149281 1.2063789.5947838.3960266.9446793.2316761.9446793.2316761l-.2099171.8453388.3848667.7829361.3848648-.7829361-.2099152-.8453388s.3498955.1643505.9446793-.2316761c.5947838-.3959884.5598144-.9598541.3149261-1.2063789z" fill="#40210f"/><path d="m30.5218201 22.8011799c.1938953.1509018.4206429.2392902.6716766.2779675.0783043.0120564.1588249.0191975.2381363.0181789.2155609-.0028763.3395157-.1061974.3642063-.2974453.00383-.0296803.0040302-.060194.0015106-.0899658-.0119915-.1448727-.1493511-.2275124-.3040428-.1823444-.051899.0151196-.1014824.0362663-.1528778.0526829-.1573124.0500832-.2457943.0287514-.3539276-.0823612-.0405121-.0417366-.082737-.0819893-.1345367-.1330013.220499.0147476.3719673-.0931206.5270615-.191433.0910015-.0576897.139576-.1373615.1417923-.2393837.0007057-.0349655-.0136032-.0489712-.0493793-.0588036-.1842194-.0502682-.3664246-.0276375-.5482254.0099258-.0408154.00844-.0832424.0164146-.1200256.0332031-.0695362.0317192-.1236534.0112228-.1685982-.034132-.0570412-.0574112-.1089401-.1190891-.1734371-.1905041.098156-.0240231.1882496-.052496.2811661-.067522.1893597-.0306072.38134-.0500832.563242.0283813.176157.0760536.3183537.1909695.4219513.338253.0932178.1326313.089489.2474537-.0272102.3728504-.0559311.0601921-.0549221.0716.0121937.1232624.0476685.0366344.0970497.0716019.1505604.1109257.0797157-.0469303.1601334-.0939541.2402534-.1415329.2218094-.1317959.4633713-.1782627.7212563-.1151009.0885849.0217018.1778717.0626984.2490196.1144505.113678.0825462.2167702.1778927.3153305.2751846.0432358.042757.074173.1009102.0930176.1567459.0302315.0894089-.0161247.1498814-.1170006.1724186-.0387001.0086269-.0781021.0146542-.1170044.0228176-.1198235.0251331-.1991348.0851421-.2153587.1997795-.0020142.0143757-.0088692.0282879-.0149155.0468369-.10289-.0504551-.1861343-.1171398-.2450867-.2021904-.0608711-.0878334.0117912-.2368793.1259689-.2676716.0619774-.016695.1276855-.0225391.1909714-.0358944.1010818-.0212402.1453209-.0756836.1184158-.1651859-.0085678-.0289364-.0566368-.0595436-.0931206-.0687256-.1570091-.0397892-.3155327-.0371914-.472641.0057507-.2191887.0599155-.3928299.1841984-.5600166.3169212-.0125961.0099239-.0184441.0331116-.017231.0494347.0195503.2529259-.125267.398077-.4385815.3805466-.3060589-.0171585-.5740242-.1252098-.8140755-.2891884-.1075287-.0734577-.2046776-.1591568-.3064613-.2391987.0053404-.0050087.0106829-.0099239.0160235-.0149326z" fill="#40210f"/><path d="m31.8673897 21.2949448c.1271801.0503616.2165718.1275291.2680664.2392902.0396042.085701.1199265.1381035.2110252.1774292.1421967.061491.2932625.0825462.4481544.0626049.2341042-.0301437.4003868-.207571.4158058-.4337845.0013084-.0200348.0022163-.0399742.0034256-.0610294.2291679.077631.3290367.285017.2324944.4765415-.1127701.2238026-.3666267.321373-.6608963.2519989-.2847939-.0672436-.4988441-.2263069-.6789322-.4261799-.0836448-.0927486-.1596298-.1910629-.2391433-.2868709z" fill="#40210f"/><path d="m32.6543541 21.1100044c.063694.0570393.128994.1154709.1936951.1733475-.0678253.0574112-.1370583.1159344-.203167.1719551-.0590553-.0527744-.1257706-.112318-.1885529-.1683388.0629845-.0563907.1310082-.1170482.1980248-.1769638z" fill="#40210f"/><path d="m32.2467155 23.9127693s.0897903 3.5637665-.3793259 6.2365932c-.4691143 2.6727314-.4192295 3.7864552-.5191002 4.4100971 0 0 .0056438-4.0525532.4526882-6.6374512.4470464-2.5848998.4457379-4.0092391.4457379-4.0092391z" fill="#40210f"/><path d="m32.0665245 10.4470806c-4.0757103 0-11.8765125 3.2721233-6.7792473 12.0901375 0 0-1.1724358-3.7490883 0-4.9168377 1.1723347-1.1677494 2.3560581-3.2808094 2.3560581-3.2808094s1.059063-1.7788229 4.4231892-1.7788229 4.4231911 1.7788229 4.4231911 1.7788229 1.1837234 2.11306 2.3560562 3.2808094c1.1724358 1.1677494 0 4.9168377 0 4.9168377 5.0972862-8.8180142-2.7035332-12.0901375-6.7792473-12.0901375z" fill="#231815"/><path d="m26.1982422 24.612793-1.1274414-1.9506836c-1.9228516-3.3261719-2.2294922-6.1708984-.9111328-8.4555664 1.6972656-2.9414063 5.6582031-4.0092773 7.9067383-4.0092773 2.2490234 0 6.2099609 1.0678711 7.9072266 4.0092773 1.3183594 2.284668 1.0117188 5.1293945-.9111328 8.4555664l-1.1259766 1.9477539.6708984-2.1474609c.3125-1.0029297.9345703-3.7954102.0615234-4.6645508-1.1826172-1.1791992-2.3486328-3.2485352-2.3974609-3.3364258-.0380859-.0610352-1.0419922-1.6508789-4.2050781-1.6508789-3.1625977 0-4.1674805 1.590332-4.2084961 1.6577148-.0454102.0810547-1.2109375 2.1503906-2.3945313 3.3295898-.8735352.8696289-.2509766 3.6621094.0625 4.6645508zm5.8681641-13.9155274c-2.1323242 0-5.8823242 1.0009766-7.4736328 3.7592773-.9848633 1.706543-.9775391 3.7753906.0175781 6.1674805-.1616211-1.1577148-.1674805-2.515625.5004883-3.1806641 1.1333008-1.1293945 2.3027344-3.2055664 2.3144531-3.2260742.0498047-.0834961 1.175293-1.9067383 4.6411133-1.9067383 3.4667969 0 4.5917969 1.8232422 4.6376953 1.9008789.0146484.0263672 1.1845703 2.1025391 2.3183594 3.2319336.6679688.6650391.6621094 2.0229492.5 3.1806641.9951172-2.3920898 1.0029297-4.4609375.0175781-6.1674805-1.5908203-2.7583007-5.3408203-3.7592773-7.4736328-3.7592773z" fill="#3e3a39"/><ellipse cx="50.305775" cy="40.095905" fill="#f5b32c" rx="2.860892" ry="2.789644"/><path d="m50.3056641 43.1357422c-1.7148438 0-3.1103516-1.3632813-3.1103516-3.0400391 0-1.6757813 1.3955078-3.0390625 3.1103516-3.0390625 1.7158203 0 3.1113281 1.3632813 3.1113281 3.0390625 0 1.6767578-1.3955078 3.0400391-3.1113281 3.0400391zm0-5.5791016c-1.4394531 0-2.6103516 1.1386719-2.6103516 2.5390625s1.1708984 2.5400391 2.6103516 2.5400391 2.6113281-1.1396484 2.6113281-2.5400391-1.171875-2.5390625-2.6113281-2.5390625z" fill="#e75513"/><path d="m56.25 38.2249832s-.5014648 2.613945-5.1135788 2.613945-5.1506577-2.613945-5.1506577-2.613945z" fill="#fe0"/><path d="m51.1367188 41.0888672c-4.7617188 0-5.3720703-2.6992188-5.3964844-2.8134766-.0146484-.0742188.0039063-.1503906.0517578-.2089844.046875-.0576172.1181641-.0917969.1933594-.0917969h10.2646484c.0742188 0 .1455078.0332031.1923828.0908203.0478516.0576172.0673828.1328125.0527344.2060547-.0214844.1152345-.5957031 2.8173829-5.3583984 2.8173829zm-4.7978516-2.6142578c.2988281.6494141 1.3554688 2.1142578 4.7978516 2.1142578s4.4765625-1.4658203 4.7646484-2.1142578z" fill="#f09400"/><path d="m55.3198814 35.4124985c0 .6353035-.5150146 1.1503181-1.1503181 1.1503181-.6353073 0-1.150322-.5150146-1.150322-1.1503181 0-.6353073 1.150322-1.6272316 1.150322-1.6272316s1.1503181.9919243 1.1503181 1.6272316z" fill="#ffe8dc"/><path d="m54.1699219 36.8125c-.7724609 0-1.4003906-.6279297-1.4003906-1.4003906 0-.7285156 1.1103516-1.7070313 1.2373047-1.8164063.09375-.0800781.2324219-.0800781.3261719 0 .1269531.109375 1.2373047 1.0878906 1.2373047 1.8164063-.0000001.7724609-.6279298 1.4003906-1.4003907 1.4003906zm0-2.6904297c-.4169922.3945313-.9003906.9746094-.9003906 1.2900391 0 .4960938.4042969.9003906.9003906.9003906s.9003906-.4042969.9003906-.9003906c0-.3164063-.4833984-.8955078-.9003906-1.2900391z" fill="#e17c7f"/><path d="m52.3198814 35.4124985c0 .6353035-.5150146 1.1503181-1.1503181 1.1503181-.6353073 0-1.150322-.5150146-1.150322-1.1503181 0-.6353073 1.150322-1.6272316 1.150322-1.6272316s1.1503181.9919243 1.1503181 1.6272316z" fill="#ffe8dc"/><path d="m51.1699219 36.8125c-.7724609 0-1.4003906-.6279297-1.4003906-1.4003906 0-.7285156 1.1103516-1.7070313 1.2373047-1.8164063.09375-.0800781.2324219-.0800781.3261719 0 .1269531.109375 1.2373047 1.0878906 1.2373047 1.8164063-.0000001.7724609-.6279298 1.4003906-1.4003907 1.4003906zm0-2.6904297c-.4169922.3945313-.9003906.9746094-.9003906 1.2900391 0 .4960938.4042969.9003906.9003906.9003906s.9003906-.4042969.9003906-.9003906c0-.3164063-.4833984-.8955078-.9003906-1.2900391z" fill="#e17c7f"/><path d="m49.3198814 35.4124985c0 .6353035-.5150146 1.1503181-1.1503181 1.1503181-.6353073 0-1.150322-.5150146-1.150322-1.1503181 0-.6353073 1.150322-1.6272316 1.150322-1.6272316s1.1503181.9919243 1.1503181 1.6272316z" fill="#ffe8dc"/><path d="m48.1699219 36.8125c-.7724609 0-1.4003906-.6279297-1.4003906-1.4003906 0-.7285156 1.1103516-1.7070313 1.2373047-1.8164063.09375-.0800781.2324219-.0800781.3261719 0 .1269531.109375 1.2373047 1.0878906 1.2373047 1.8164063-.0000001.7724609-.6279298 1.4003906-1.4003907 1.4003906zm0-2.6904297c-.4169922.3945313-.9003906.9746094-.9003906 1.2900391 0 .4960938.4042969.9003906.9003906.9003906s.9003906-.4042969.9003906-.9003906c0-.3164063-.4833984-.8955078-.9003906-1.2900391z" fill="#e17c7f"/><path d="m56.6948814 36.2591057c0 .6353035-.5150146 1.150322-1.1503181 1.150322-.6353073 0-1.150322-.5150185-1.150322-1.150322 0-.6353073 1.150322-1.6272278 1.150322-1.6272278s1.1503181.9919205 1.1503181 1.6272278z" fill="#ffe8dc"/><path d="m55.5449219 37.6591797c-.7724609 0-1.4003906-.6279297-1.4003906-1.4003906 0-.7285156 1.1103516-1.7070313 1.2373047-1.8164063.09375-.0800781.2324219-.0800781.3261719 0 .1269531.109375 1.2373047 1.0878906 1.2373047 1.8164063-.0000001.7724609-.6279298 1.4003906-1.4003907 1.4003906zm0-2.6904297c-.4169922.3945313-.9003906.9746094-.9003906 1.2900391 0 .4960938.4042969.9003906.9003906.9003906s.9003906-.4042969.9003906-.9003906c0-.3164063-.4833984-.8955078-.9003906-1.2900391z" fill="#e17c7f"/><path d="m53.6948814 36.2591057c0 .6353035-.5150146 1.150322-1.1503181 1.150322-.6353073 0-1.150322-.5150185-1.150322-1.150322 0-.6353073 1.150322-1.6272278 1.150322-1.6272278s1.1503181.9919205 1.1503181 1.6272278z" fill="#ffe8dc"/><path d="m52.5449219 37.6591797c-.7724609 0-1.4003906-.6279297-1.4003906-1.4003906 0-.7285156 1.1103516-1.7070313 1.2373047-1.8164063.09375-.0800781.2324219-.0800781.3261719 0 .1269531.109375 1.2373047 1.0878906 1.2373047 1.8164063-.0000001.7724609-.6279298 1.4003906-1.4003907 1.4003906zm0-2.6904297c-.4169922.3945313-.9003906.9746094-.9003906 1.2900391 0 .4960938.4042969.9003906.9003906.9003906s.9003906-.4042969.9003906-.9003906c0-.3164063-.4833984-.8955078-.9003906-1.2900391z" fill="#e17c7f"/><path d="m50.6948814 36.2591057c0 .6353035-.5150146 1.150322-1.1503181 1.150322-.6353073 0-1.150322-.5150185-1.150322-1.150322 0-.6353073 1.150322-1.6272278 1.150322-1.6272278s1.1503181.9919205 1.1503181 1.6272278z" fill="#ffe8dc"/><path d="m49.5449219 37.6591797c-.7724609 0-1.4003906-.6279297-1.4003906-1.4003906 0-.7285156 1.1103516-1.7070313 1.2373047-1.8164063.09375-.0800781.2324219-.0800781.3261719 0 .1269531.109375 1.2373047 1.0878906 1.2373047 1.8164063-.0000001.7724609-.6279298 1.4003906-1.4003907 1.4003906zm0-2.6904297c-.4169922.3945313-.9003906.9746094-.9003906 1.2900391 0 .4960938.4042969.9003906.9003906.9003906s.9003906-.4042969.9003906-.9003906c0-.3164063-.4833984-.8955078-.9003906-1.2900391z" fill="#e17c7f"/><path d="m47.6948814 36.2591057c0 .6353035-.5150146 1.150322-1.1503181 1.150322-.6353073 0-1.150322-.5150185-1.150322-1.150322 0-.6353073 1.150322-1.6272278 1.150322-1.6272278s1.1503181.9919205 1.1503181 1.6272278z" fill="#ffe8dc"/><path d="m46.5449219 37.6591797c-.7724609 0-1.4003906-.6279297-1.4003906-1.4003906 0-.7285156 1.1103516-1.7070313 1.2373047-1.8164063.09375-.0800781.2324219-.0800781.3261719 0 .1269531.109375 1.2373047 1.0878906 1.2373047 1.8164063-.0000001.7724609-.6279298 1.4003906-1.4003907 1.4003906zm0-2.6904297c-.4169922.3945313-.9003906.9746094-.9003906 1.2900391 0 .4960938.4042969.9003906.9003906.9003906s.9003906-.4042969.9003906-.9003906c0-.3164063-.4833984-.8955078-.9003906-1.2900391z" fill="#e17c7f"/><path d="m45.9857635 38.2249832-1.2091407-1.3249054h12.5358772l-1.0625 1.3249054z" fill="#fe0"/><path d="m56.25 38.4746094h-10.2646484c-.0703125 0-.1376953-.0292969-.1845703-.0810547l-1.2089844-1.3242188c-.0664063-.0732422-.0839844-.1796875-.0439453-.2695313.0400391-.0908203.1298828-.1494141.2285156-.1494141h12.5361328c.0957031 0 .1835938.0546875.2255859.1416016.0410156.0869141.0292969.1894531-.0302734.2646484l-1.0625 1.3242188c-.0478516.0595704-.1191406.0937501-.1953125.0937501zm-10.1542969-.5h10.0341797l.6611328-.8242188h-11.4482422z" fill="#f09400"/><path d="m55.125 39.1127472s-2.5226173 1.2874565-7.6801186 0c0 0 3.0551186 3.1752434 7.6801186 0z" fill="#f09400"/><path d="m56.25 37.5625305h-9.7054367s5.9554367.6250343 9.7054367 0z" fill="#f09400"/><path d="m52.75 41.3220749c2.8333321-3.680439.75-2.680439.75-2.680439l-.75 1.9729271s.4166679-.8875237.0833321-2.0968933c-.3333321-1.2093697-1.1666642-.3760338-1.1666642-.3760338s-.5011597-.6362534-.9172478.0152054c0 0-.8327522-.5985413-.9160881.0681267l-.333332 1.6152916s.0014191-1.1986237-.2909584-1.2819595c-.2923737-.0833321-.5698051-.0884018-.6912537.4620094-.1770134.8021965-.0429764 2.0213585-.0429764 2.0213585s1.4418564 3.9608497 4.2751885.2804069z" fill="#ebcf86"/><path d="m50.4755859 43.1386719c-1.4863281 0-2.2060547-1.9287109-2.2363281-2.0107422-.0185547-.1103516-.1494141-1.3291016.0341797-2.1611328.1025391-.4648438.3359375-.6992188.6923828-.6992188.0917969 0 .1904297.015625.3125.0507813.09375.0263672.1738281.0917969.2402344.1943359l.0693359-.3388672c.0390625-.3144531.2460938-.5136719.5498047-.5136719.1962891 0 .4052734.0888672.5546875.1689453.1738281-.1738281.3535156-.2158203.4863281-.2158203.2060547 0 .3818359.0996094.5039063.1953125.1396484-.0947266.3417969-.1962891.5644531-.1962891.2714844 0 .6357422.1455078.8271484.8388672.0361328.1308594.0644531.2587891.0849609.3828125l.1074219-.28125c.0224609-.0595703.0673828-.1083984.125-.1367188.0322266-.0146484.3173828-.1484375.5771484-.1484375.2939453 0 .4179688.1630859.4658203.2597656.1503906.3066406.0917969.8964844-1.4863281 2.9472656-.8496093 1.1044924-1.6816405 1.6640627-2.4726562 1.6640627zm-1.7529296-2.125c.0087891 0 .6308594 1.625 1.7529297 1.625.6279297 0 1.3261719-.4941406 2.0761719-1.46875.0830078-.1074219.1611328-.2109375.234375-.3095703-.0449219.0068359-.0908203.0019531-.1337891-.0166016-.1240234-.0527344-.1835938-.1933594-.1357422-.3183594l.0595703-.1582031c.0810547-.2441406.2519531-.9287109.015625-1.7832031-.0595703-.2158203-.1669922-.4716797-.3447266-.4716797-.1630859 0-.359375.1621094-.4033203.2060547-.0498047.0507813-.1201172.0742188-.1914063.0732422-.0712891-.0048828-.1376953-.0390625-.1816406-.0947266-.0478516-.0595703-.1835938-.1835938-.2919922-.1835938-.0869141 0-.1669922.0976563-.21875.1787109-.0371094.0576172-.0966797.0976563-.1640625.1103516-.0683594.0136719-.1367188-.0019531-.1923828-.0419922-.1162109-.0830078-.3378906-.2001953-.4658203-.2001953-.0292969.0029297-.0478516.0224609-.0566406.0957031l-.3359375 1.6347656c-.0253906.125-.1279297.2109375-.2705078.1982422-.1279297-.0136718-.2246094-.1210937-.2246094-.2490233 0-.4658203-.0732422-.9726563-.1542969-1.0654297-.0263672.0058594-.0859375-.0068359-.1298828-.0068359s-.1357422 0-.2041016.3066406c-.1640625.7451172-.0419922 1.9072266-.0390625 1.9404297.0000001-.0009766.0000001-.0009766.0000001-.0009766zm4.9726562-2.1835938-.6230469 1.6396484c.9833984-1.3789063.9248047-1.6884766.9130859-1.7236328-.0908202.0156251-.2031249.0507813-.290039.0839844z" fill="#926134"/><path d="m16.583334 35.125-3.0853891 2.1263809s-3.6555119 4.544651 0 5.3404121c3.6555128.7957649 5.6490202-5.2590141 5.6490202-5.2590141s1.3693352.1289978 2.7218571-1.7246017c1.3525238-1.8535995.1245022-2.4729271 0-3.4233398-.2698308-2.0598374-1.1887857-.1848374-1.1887857-.1848374l.1532974 1.4166679-.4523773-4.1805534s-.4851131-1.1834259-.9145641-.2424908c0 0-.6540489-1.0413246-1.0546703 0 0 0-.312645-.5059967-.7665005.4981842-.4538536 1.004179-.4538536 1.004179-.4538536 1.004179s-.4290447.2523956-.5778313 1.1044827-.2615376 1.2464657-.0489693 1.9311314c.2125664.6846694.3412362 1.4091796.0187665 1.593399z" fill="#ebcf86"/><path d="m14.1557617 42.9140625c-.0004883 0-.0004883 0-.0004883 0-.234375 0-.4731445-.0263672-.7104492-.078125-.9023438-.1962891-1.4775391-.6289063-1.7094727-1.2851563-.6083984-1.7226563 1.4785156-4.3457031 1.5678711-4.4560547.0151367-.0195313.0332031-.0361328.0527344-.0498047l3.0854492-2.1259766c.0820313-.0478516.1831055-.3535156-.1157227-1.3134766-.2070313-.6674805-.1313477-1.0878906-.0053711-1.7841797l.0473633-.2636719c.1318359-.7573242.4692383-1.1030273.6235352-1.2250977l.4257813-.9438477c.2353516-.5200195.4902344-.7724609.7802734-.7724609.0405273 0 .0791016.0053711.1152344.0146484.1791992-.2827148.3901367-.3500977.5507813-.3500977.2319336 0 .4335938.1416016.5795898.2866211.1147461-.1245117.2456055-.1870117.3911133-.1870117.4326172 0 .7050781.5825195.7783203.7612305.0087891.0214844.0146484.0444336.0170898.0678711l.2246094 2.0727539c.1567383-.1738281.3466797-.3134766.5527344-.3134766.5546875 0 .6674805.8603516.7099609 1.184082.0292969.2265625.1430664.4482422.2626953.6831055.3344727.6542969.7504883 1.4677734-.3085938 2.9199219-1.1259766 1.5429688-2.2758789 1.7919922-2.7451172 1.8251953-.3398437.9414065-2.0888671 5.3330081-5.1699218 5.3330081zm-.484375-5.4785156c-.2163086.2773438-1.9511719 2.5722656-1.4643555 3.9492188.1728516.4882813.6123047.8037109 1.3442383.9628906.2021484.0439453.4052734.0664063.6040039.0664063 3.0205078 0 4.7373047-5.1074219 4.7543945-5.1591797.0361328-.1113281.1513672-.1855469.2607422-.1708984h.0039063c.2553711 0 1.3701172-.0849609 2.4921875-1.6230469.878418-1.203125.5820313-1.7832031.2680664-2.3974609-.1342773-.262207-.2729492-.5336914-.3139648-.8457031-.0869141-.6650391-.2255859-.7509766-.2270508-.7519531-.0810547.0146484-.3037109.2915039-.4570313.581543l.1455078 1.3422852c.0146484.1376953-.0844727.2607422-.2216797.2763672-.1308594.0195313-.2607422-.0839844-.2753906-.2216797l-.4487305-4.144043c-.0888672-.2001953-.2338867-.4018555-.3046875-.4199219.0014648.0039063-.0576172.0419922-.1376953.2172852-.0380859.0834961-.1191406.1386719-.2104492.1450195-.0976563.0092773-.1796875-.0385742-.2285156-.1157227-.1040039-.1635742-.2905273-.3461914-.3916016-.3461914-.0507813 0-.1376953.09375-.2182617.3027344-.0341797.0883789-.1157227.1503906-.2099609.1591797-.097168.0053711-.1865234-.0371094-.2363281-.1176758.0063477-.0048828-.1254883.0258789-.3261719.4697266l-.453125 1.0043945c-.0214844.046875-.0566406.0864258-.1010742.1123047-.0097656.0063477-.3349609.2231445-.4584961.9321289l-.0473633.2666014c-.1201172.6635742-.1801758.996582-.0092773 1.546875.3295898 1.0595703.2993164 1.6591797-.0957031 1.8847656z" fill="#926134"/><path d="m19.146965 37.3327789s-2.042799.4172211-2.5636311-2.2077789c0 0-.4124241-.4928055-.685379.4723473 0 0-.2689495 3.1011696 3.0135441 2.3552399 0-.0000001.9987698-.5939027.235466-.6198083z" fill="#f5b32c"/><g fill="#926134"><path d="m17.972168 38.3183594c-.7163086 0-1.284668-.2236328-1.6889648-.6650391-.7358398-.8017578-.6386719-2.0253906-.6342773-2.0771484.1547852-.5644531.3842773-.8271484.6899414-.8271484.2436523 0 .40625.1796875.4365234.2158203.0268555.0322266.0449219.0703125.0532227.1113281.3505859 1.7675781 1.4111328 2.03125 2.012207 2.03125.1494141 0 .2470703-.0175781.2573242-.0195313.3535156.0048828.5283203.1035156.5756836.2880859.0229492.0888672.0922852.359375-.6342773.7910156-.0224609.0136719-.046875.0234375-.0727539.0292969-.3564454.0810548-.6909181.1220704-.994629.1220704zm-1.8334961-2.6533203c.0048828 0-.0625 1.0253906.5151367 1.6523438.3051758.3320313.7490234.5009766 1.3183594.5009766.2553711 0 .5395508-.0341797.8447266-.1015625.0576172-.0351563.1152344-.0751953.1679688-.1142578-.5146484.0332031-2.1333008-.0380859-2.6293945-2.3457031-.0073242-.0039063-.0136719-.0068359-.0180664-.0078125.001953.001953-.0971681.0566405-.1987306.4160155z"/><path d="m19.7495117 32.25c-.1274414 0-.2363281-.097168-.2485352-.2265625l-.2836914-3.0063477c-.0126953-.137207.0878906-.2592773.2255859-.2724609.1328125-.0058594.2592773.0883789.2724609.2255859l.2836914 3.0063477c.0126953.137207-.0878906.2592773-.2255859.2724609-.0078124.0004883-.0161132.0009766-.0239257.0009766z"/><path d="m18.6289063 32.5415039c-.1303711 0-.2402344-.1015625-.2490234-.2333984l-.2177734-3.2978516c-.0092773-.1376953.0952148-.2568359.2329102-.2661133.1455078-.0092773.2568359.0957031.2661133.2329102l.2177734 3.2978516c.0092773.1376953-.0952148.2568359-.2329102.2661133-.0058595.0004882-.0112306.0004882-.0170899.0004882z"/><path d="m17.6450195 33.3388672c-.1103516 0-.2109375-.0732422-.2412109-.1845703l-.1035156-.3803711c-.0244141-.1689453-.1757813-1.3666992-.1323242-1.7597656.0229492-.2055664-.1015625-.300293-.1157227-.3105469-.1108398-.078125-.1411133-.2324219-.0654297-.3452148.0751953-.1123047.2255859-.1445313.3388672-.0732422.1479492.0947266.3862305.3657227.3393555.7841797-.03125.2827148.0791016 1.2558594.1245117 1.6074219l.0966797.3466797c.0361328.1328125-.0424805.2705078-.1757813.3066406-.0219726.0058593-.0439453.008789-.0654297.008789z"/><path d="m20.4506836 34.0097656c-.0683594 0-.1367188-.0283203-.1860352-.0830078-.0922852-.1035156-.0834961-.2607422.019043-.3535156l.3828125-.3427734c.1020508-.0908203.2597656-.0830078.3530273.0195313.0922852.1035156.0834961.2607422-.019043.3535156l-.3828125.3427734c-.0478515.0419922-.1074218.0634765-.1669921.0634765z"/></g><path d="m13.4979448 28.3849144s-2.5790653.4484196-3.6635046 1.4484196c0 0-.3865356 1.4217224.5178604 2.458334l3.8976994-1.6490231s.3292236-1.4561501-.7520552-2.2577305z" fill="#f5b32c"/><path d="m10.3525391 32.5415039c-.0708008 0-.1396484-.0297852-.1884766-.0854492-.9814453-1.1245117-.5878906-2.625-.5708008-2.6879883.012207-.0454102.0371094-.0864258.0717773-.1181641 1.1254883-1.0380859 3.6821289-1.4926758 3.7900391-1.5112305.0673828-.0107422.1367188.0048828.1918945.0454102 1.1982422.8886719.8618164 2.4477539.8466797 2.5136719-.0175781.0786133-.0722656.1435547-.1464844.175293l-3.8969727 1.6489258c-.0317382.0131836-.0649413.0195312-.0976561.0195312zm-.2919922-2.574707c-.0532227.2641602-.1987305 1.2407227.3691406 2.0205078l3.597168-1.5219727c.0444336-.328125.09375-1.2338867-.5942383-1.8139648-.4824219.0952148-2.4501953.5219726-3.3720703 1.3154297z" fill="#e75513"/><path d="m49.9210472 28.5426102s2.5790672.4484196 3.6635056 1.4484196c0 0 .3865356 1.4217224-.5178604 2.458334l-3.8977013-1.6490211c0-.0000001-.3292198-1.4561521.7520561-2.2577325z" fill="#f5b32c"/><path d="m53.0664063 32.6992188c-.0332031 0-.0654297-.0063477-.0976563-.0195313l-3.8974609-1.6489258c-.0742188-.0317383-.1289063-.0966797-.1464844-.175293-.0146484-.065918-.3505859-1.625.8476563-2.5136719.0546875-.0410156.1240234-.0556641.1914063-.0454102.1083984.0185547 2.6640625.4731445 3.7900391 1.5112305.0351563.0317383.0595703.0727539.0722656.1181641.0175781.0634766.4091797 1.5634766-.5712891 2.6879883-.0488282.0556641-.1181641.0854493-.1884766.0854493zm-3.6738282-2.0761719 3.5966797 1.5219727c.5712891-.7832031.4238281-1.7568359.3701172-2.0200195-.9228516-.7939453-2.890625-1.2207031-3.3730469-1.315918-.6875.5800781-.6386718 1.4858398-.59375 1.8139648z" fill="#e75513"/><path d="m31.9944668 48.9363403s-15.7180634.6732788-16.4409904 1.7687454c-.722928 1.0954704-5.8568077 8.2731018 3.4875841 11.1943512s17.738615 0 17.738615 0 4.0573997-2.5358505 4.6090431-5.8323822c.5516424-3.2965278-9.3942518-7.1307144-9.3942518-7.1307144z" fill="#ffd300"/><path d="m27.793457 63.5722656c-.0004883 0-.0004883 0-.0004883 0-3.0898438 0-6.0717773-.4423828-8.8637695-1.3144531-2.9711914-.9296875-4.8251953-2.3847656-5.5102539-4.3271484-.7216797-2.0458984-.1323242-4.5097656 1.7504883-7.3251953l.0712891-.1074219c.7475586-1.1328125 11.9541016-1.7314453 16.737793-1.9365234.0512695.0009766.1030273.0068359.1508789.0253906 1.0473633.4033203 10.2143555 4.0449219 9.6293945 7.5419922-.5732422 3.4238281-4.609375 5.9814453-4.7802734 6.0888672-.2304688.0898437-3.9267579 1.3544921-9.1850587 1.3544921zm4.1386719-14.2578125c-7.4038086.3193359-15.4243164 1.0097656-16.0805664 1.6162109l-.0585938.0917969c-1.7446289 2.6083984-2.3051758 4.8486328-1.6665039 6.6591797.6020508 1.7070313 2.293457 3.0058594 5.0263672 3.859375 2.7192383.8505859 5.6264648 1.28125 8.6401367 1.28125 5.1240234 0 8.8261719-1.2646484 8.8632813-1.2773438-.0185547 0 3.8466797-2.4589844 4.3623047-5.5390625.4082031-2.4355468-6.3496094-5.6259765-9.0864258-6.6914062z" fill="#e75513"/><path d="m42.9656563 57.2440453 3.905365.6289024 1.6265869.8216019s.4744225.5789261-.2710991.8714294c0 0 .0677757.7033081-.4744225.9087067-.5421944.2054024-.8415413 1.3008728-1.267952 1.369339s-1.6885834.1369324-2.2435493 0c-.5549698-.1369362-3.333725-1.9170723-3.333725-1.9170723z" fill="#ebcf86"/><path d="m45.2050781 62.1728516c-.4482422 0-.7929688-.0292969-1.0253906-.0869141-.5771484-.1416016-3.1191406-1.7646484-3.4072266-1.9482422l-.2294922-.1474609 2.3154297-3.0166016 4.125.6757813 1.7080078.8867188c.0292969.0351563.2792969.3544922.1835938.7197266-.0507813.1953125-.1845703.3525391-.3984375.4697266-.015625.2763672-.1171875.7861328-.6357422.9824219-.1982422.0751953-.3935547.3828125-.5664063.6533203-.2216797.3486328-.4306641.6777344-.75.7294922-.2568359.0410154-.7919921.0820311-1.3193359.0820311zm-3.9335937-2.3105469c1.0761719.6826172 2.6796875 1.6523438 3.0283203 1.7382813.1875.046875.5097656.0722656.9052734.0722656.4960938 0 1.0087891-.0390625 1.2402344-.0761719.0976563-.015625.2910156-.3212891.4072266-.5029297.2148438-.3369141.4570313-.71875.8105469-.8525391.3544922-.1347656.3164063-.6308594.3144531-.6523438l-.015625-.1855469.1728516-.0693359c.1025391-.0410156.2304688-.1083984.2558594-.203125.0224609-.0810547-.0244141-.1826172-.0615234-.2412109l-1.5361328-.7763672-3.7197266-.5986328z" fill="#926134"/><path d="m37.592968 61.3212128s3.1726341-2.7081833 3.5792809-4.5567856c.4066467-1.8486061 2.5452576-1.1958122 2.5452576-1.1958122s-1.0031548 4.243412-3.3074875 5.4073486z" fill="#8bc01f"/><path d="m37.5927734 61.6962891c-.1474609 0-.2832031-.0869141-.3427734-.2236328-.0673828-.1513672-.0263672-.3291016.0996094-.4365234.0302734-.0263672 3.0810547-2.6474609 3.4560547-4.3515625.2275391-1.0341797.96875-1.6025391 2.0878906-1.6025391.5078125 0 .9160156.1220703.9335938.1279297.1894531.0576172.3007813.2519531.2558594.4443359-.0429688.1806641-1.0722656 4.4287109-3.5039063 5.65625-.0390625.0195313-.0800781.0322266-.1230469.0371094l-2.8173828.3457031c-.015625.0019531-.03125.0029297-.0458985.0029297zm5.3007813-5.8642578c-.7617188 0-1.2050781.3310547-1.3554688 1.0136719-.2910156 1.3222656-1.8300781 2.9902344-2.8320313 3.9609375l1.5917969-.1953125c1.703125-.9101563 2.6572266-3.7333984 2.953125-4.7548828-.1054687-.0146485-.227539-.0244141-.3574218-.0244141z" fill="#006934"/><path d="m30.1669922 62.1728516c-.0068359 0-.0131836 0-.0195313-.0009766-.3955078-.0302734-9.7226563-.7548828-13.0537109-2.1699219-3.4501953-1.4677734-3.3198242-6.2705078-3.3125-6.4746094.0053711-.1376953.1342773-.2333984.2587891-.2412109.1376953.0048828.2456055.1210938.2412109.2587891-.0019531.046875-.1245117 4.6640625 3.0078125 5.9960938 3.2563477 1.3847656 12.800293 2.125 12.8964844 2.1328125.1376953.0097656.2407227.1298828.2304688.2675781-.010254.1318359-.119629.2314453-.2490235.2314453z" fill="#e75513"/><path d="m21.2877598 50.1374855-3.9234447 1.4319458s-1.9756088 1.0212059-2.0895863 1.9757652c0 0-.9592276 1.1744232-.3494329 1.4446373.6097956.2702103 1.2692461.3044662 1.2692461.3044662l1.1914597.5401154s.3966331.9847488 3.3454895-1.0978203c1.3074036-.9233284 2.8400211-.8387985 2.8400211-.8387985z" fill="#ebcf86"/><path d="m17.9150391 56.3164063c-.4077148 0-.6083984-.1679688-.6982422-.2851563l-1.0849609-.4912109c-.1713867-.0136719-.7539063-.0761719-1.3076172-.3212891-.1757813-.078125-.2910156-.2138672-.3334961-.3925781-.1147461-.4804688.3691406-1.1572266.5478516-1.3857422.2021484-1.0273438 2.0014648-1.9853516 2.2109375-2.0927734l4.1450195-1.515625 2.6357422 4.3398438-.5615235-.0263673c-.3442383 0-1.5478516.0576172-2.5932617.7949219-1.2924805.9130859-2.2885742 1.3759766-2.9604492 1.3759766zm-.2973633-.5771485c.0092773-.0009766.5986328.4667969 2.9697266-1.2070313.9321289-.6582031 1.972168-.8310547 2.5463867-.8730469l-1.953125-3.2158203-3.7304688 1.3603516c-.6894531.359375-1.855957 1.1728516-1.9272461 1.7705078l-.0083008.0722656-.0458984.0566407c-.237793.2910156-.5405273.8037109-.4916992 1.0068359.0039063.0166016.0078125.0332031.0498047.0517578.5576172.2460938 1.1743164.2822266 1.1806641.2822266l.0898438.0224609 1.2832031.5810547z" fill="#926134"/><path d="m40.2706299 58.3889923s6.9014473-.962719 7.3240128-1.8756104c.4225616-.9128914 1.5306892-4.3465347 1.057991-6.4815254-.472702-2.1349907-9.2171669-1.0955162-9.2171669-1.0955162z" fill="#ffd300"/><path d="m40.2705078 58.7636719c-.0839844 0-.1669922-.0283203-.2333984-.0820313-.0800781-.0634766-.1308594-.1572266-.140625-.2597656l-.8349609-9.4521484c-.0175781-.2021484.1289063-.3818359.3300781-.4052734.0214844-.0029297 2.1757813-.2558594 4.3857422-.2558594 3.2822266 0 4.9960938.5371094 5.2412109 1.6425781.4941406 2.234375-.6376953 5.7568359-1.0839844 6.7197266-.4589844.9921875-5.4765625 1.7910156-7.6123047 2.0888672-.0175781.0029296-.0341797.0039062-.0517578.0039062zm-.4287109-9.4931641.7675781 8.6914063c3.0234375-.4423828 6.3261719-1.1630859 6.6513672-1.6162109.4746094-1.0273438 1.4541016-4.2978516 1.0253906-6.2324219-.0546875-.2470703-.5419922-1.0546875-4.5087891-1.0546875-1.633789 0-3.2392578.1416015-3.9355468.211914z" fill="#e75513"/><path d="m47.5140877 45.7024879s6.6649208 6.3227539-4.6808281 12.1020813-14.977108 1.9665451-14.977108 1.9665451l-6.2571602-10.7900429c0 .0000001 21.5821381-6.6275825 25.9150963-3.2785835z" fill="#ffd300"/><path d="m32.1328125 61.3798828c-3.2260742 0-4.4960938-1.2949219-4.5483398-1.3496094l-6.3095703-10.8603516c-.0576172-.0996094-.0664063-.21875-.0249023-.3251953s.1298828-.1884766.2392578-.2216797c.1376953-.0419922 13.8974609-4.2412109 21.6171875-4.2412109 2.2285156 0 3.7460938.3349609 4.6367188 1.0234375.1289063.1201172 2.4892578 2.4013672 2.0322266 5.5537109-.3867188 2.6728516-2.6660156 5.0878906-6.7724609 7.1796875-4.2216799 2.1513673-7.879883 3.241211-10.8701174 3.241211zm-3.9536133-1.7988281c.019043 0 1.1586914 1.0488281 3.9536133 1.0488281 2.8710938 0 6.4140625-1.0625 10.5302734-3.1591797 3.8730469-1.9726563 6.015625-4.1972656 6.3691406-6.6123047.4052734-2.765625-1.7548828-4.8632813-1.7773438-4.8847656-.7148438-.5498047-2.1201172-.8417969-4.1484375-.8417969-6.8222656 0-18.5068359 3.3505859-20.9448242 4.0722656z" fill="#e75513"/><path d="m21.5989914 48.9810715-2.3121166 1.2170105s3.6515865 7.9529419 5.1864586 8.7299385 3.3828182.8430939 3.3828182.8430939z" fill="#8bc01f"/><path d="m27.855957 60.1464844c-.0043945 0-.0087891 0-.0136719 0-.0786133-.0029297-1.9482422-.0791016-3.5385742-.8837891-1.6049805-.8125-4.9780273-8.0820313-5.3574219-8.9082031-.0830078-.1806641-.0102539-.3955078.1660156-.4882813l2.3120117-1.2167969c.1791992-.09375.3979492-.0292969.4990234.1435547l6.2568359 10.7900391c.0688477.1181641.0673828.2646484-.0029297.3818359-.0678709.1132813-.1899412.1816407-.3212889.1816407zm-8.0791015-9.7822266c1.4199219 3.0478516 3.8686523 7.7246094 4.8657227 8.2285156.8745117.4433594 1.8706055.6445313 2.5219727.734375l-5.7094727-9.8466797z" fill="#006934"/><path d="m37.6162109 55.6767578c-1.8798828 0-3.8447266-.2607422-5.5229492-1.0400391-4.8969727-2.2744141-8.5893555-4.9648438-8.6264648-4.9921875-.1113281-.0810547-.1352539-.2373047-.0537109-.3486328.0820313-.1113281.237793-.1347656.3496094-.0546875.0361328.0273438 3.6914063 2.6894531 8.5415039 4.9423828 4.7875977 2.2236328 12.324707-.0224609 12.3999023-.046875.1279297-.0371094.2705078.0341797.3115234.1669922.0400391.1318359-.0341797.2714844-.1669922.3115234-.2089844.0634766-3.555664 1.0615235-7.2324219 1.0615235z" fill="#e75513"/><path d="m42.5 56.0670547s-11.108696 3.2892799-15.0456047-.6476288c0 .0000001 1.3040523 8.8305741 15.0456047.6476288z" fill="#e66f00"/><path d="m47.4448814 49.0787888s.4448853.4729996 0 1.9471054c-.4448814 1.4741058-2.0506401 2.5102691-2.0506401 2.5102691s-2.0837669.5910225-4.739006.8399315c0 0 4.6095314-1.5935211 6.7896461-5.297306z" fill="#e66f00"/><path d="m32.0665245 6.2046771c-12.6600704 4.1736808-8.4518375 12.4051056-8.4518375 12.4051056 2.7595673-5.7388105 7.633028-5.6808424 7.633028-5.6808424l.8188095.4057741.8188095-.4057741s4.8734627-.0579681 7.6330299 5.6808424c.0000001.0000005 4.2082329-8.2314248-8.4518394-12.4051056z" fill="#fe0"/><path d="m40.5185547 18.8598633c-.109375.0151367-.1845703-.0556641-.2255859-.1416016-2.5166016-5.2329102-6.8056641-5.5234375-7.3505859-5.5385742l-.7651367.3789063c-.0693359.0341797-.1523438.0341797-.2216797 0l-.7646484-.3789063c-.5585938.0161133-4.8383789.3134766-7.3510742 5.5385742-.0415039.0859375-.1435547.1196289-.2250977.1416016-.09375 0-.1796875-.0527344-.2226563-.1362305-.0600586-.1176758-1.4580078-2.918457-.1362305-6.1357422 1.1801758-2.8720703 4.1181641-5.0996094 8.7324219-6.6206055.0507813-.0166016.1054688-.0166016.15625 0 4.6142578 1.5209961 7.5527344 3.7485352 8.7324219 6.6206055 1.3222656 3.2172852-.0751953 6.0180664-.1357422 6.1357422-.0429688.0834961-.1289063.1362305-.2226563.1362305zm-8.4521484-12.3920899c-4.4238281 1.4726563-7.2324219 3.5952148-8.3481445 6.3100586-.925293 2.2519531-.4052734 4.3232422-.0805664 5.2324219 2.8012695-5.269043 7.4038086-5.331543 7.6044922-5.331543.0380859 0 .0820313.0087891.1162109.0258789l.7080078.3510742.7080078-.3510742c.0336914-.0166016.0703125-.0253906.1079102-.0258789.2084961 0 4.8110352.0625 7.612793 5.3305664.3242188-.9125977.84375-2.9907227-.0839844-5.2387695-1.1171876-2.7114258-3.9248048-4.831543-8.3447266-6.3027344z" fill="#f09400"/><path d="m32.0665245 7.3833342s-9.447813 1.9709072-8.2662067 9.2967539c0 0 2.7234898-4.9684706 7.3004646-4.9684706l.9657421-.9661493.965744.9661493c4.576973 0 7.3004646 4.9684706 7.3004646 4.9684706 1.1816063-7.3258467-8.2662086-9.2967539-8.2662086-9.2967539z" fill="#fe0"/><path d="m23.800293 16.9301758c-.0141602 0-.0283203-.0009766-.0424805-.003418-.1054688-.0185547-.1875-.1015625-.2041016-.206543-1.2060547-7.4755859 8.3647461-9.5615234 8.4614258-9.581543.0341797-.0068359.0683594-.0068359.1025391 0 .0966797.0200195 9.6674805 2.105957 8.4624023 9.581543-.0175781.1049805-.0996094.1879883-.2041016.2060547-.1103516.0185547-.2109375-.0327148-.2617188-.1259766-.0273438-.0483398-2.7089844-4.8388672-7.0820313-4.8388672-.0664063 0-.1298828-.0263672-.1767578-.0732422l-.7890625-.7890625-.7890625.7890625c-.046875.046875-.1103516.0732422-.1767578.0732422-4.3779297 0-7.0546875 4.7905273-7.0810547 4.8388672-.0444334.0810548-.1289061.1298829-.2192381.1298829zm9.3364258-5.4677735c3.6689453.0571289 6.125 3.1240234 7.0302734 4.4760742.4189453-6.1791992-7.3876953-8.1342773-8.1005859-8.2988281-.7119141.1650391-8.5180664 2.1235352-8.1000977 8.2983398.9057617-1.3515625 3.3613281-4.418457 7.0297852-4.4755859l.8935547-.8935547c.0976563-.0976563.2558594-.0976563.3535156 0z" fill="#f09400"/><path d="m30.4134846 4.4656434c0-.8495016 1.6712818-3.4656434 1.6712818-3.4656434s1.6712799 2.6161418 1.6712799 3.4656434-.7482681 1.5381594-1.6712799 1.5381594c-.9230137 0-1.6712818-.6886573-1.6712818-1.5381594z" fill="#fe0"/><path d="m32.0849609 6.2539063c-1.0595703 0-1.9213867-.8022461-1.9213867-1.7880859 0-.8969727 1.5356445-3.3261719 1.7109375-3.6005859.0458985-.0717775.125-.1152345.2104492-.1152345.0854492 0 .1645508.043457.2104492.1152344.175293.2744141 1.7104492 2.7036133 1.7104492 3.6005859.0000001.9858399-.861328 1.788086-1.9208984 1.788086zm0-4.7822266c-.6206055 1.0126953-1.4213867 2.4882813-1.4213867 2.9941406 0 .7104492.6376953 1.2880859 1.4213867 1.2880859s1.4208984-.5776367 1.4208984-1.2880859c.0000001-.5058594-.8002929-1.9814453-1.4208984-2.9941406z" fill="#f09400"/><path d="m36.0166168 8.5671473-1.1049194.7087392.5299225 1.20047-1.3153763.002656-.1554718 1.3053312-1.153656-.6342354-.7437363 1.0859385-.74403-1.0860167-1.1536846.6341143-.1554604-1.3054781-1.3154335-.0030155.5302487-1.2002192-1.1047783-.7082843 1.1049118-.7087303-.5299416-1.2004513 1.3153649-.0026727.1554317-1.3053279 1.153656.6342163.7437153-1.0859427.7440529 1.0860138 1.1536865-.6341315.1555023 1.3054843 1.315445.003006-.5302315 1.2002387z" fill="#fe0"/><path d="m32.0732422 12.6782227-.8217773-1.2001953-1.2797852.7036133-.1738281-1.4536133-1.4765625-.003418.5981445-1.3544922-1.2519531-.8027344 1.2524414-.8037109-.5981445-1.3544922 1.4765625-.003418.1728516-1.453125 1.2802733.7036133.8217773-1.2001953.8222657 1.2001953 1.2792969-.7036133.1738281 1.4536133 1.4775391.003418-.5986328 1.3544922 1.2519531.8032227-1.2519531.8032227.5966797 1.3554688-1.4765625.0024414-.1728516 1.453125-1.2797852-.7036133zm-.6655274-1.8564454.6655273.9716797.6655273-.9716797 1.027832.5649414.1376953-1.1572266 1.1542969-.0024414-.4619141-1.0458984.9570313-.6137695-.9570313-.6137695.4619141-1.0458984-1.1533203-.0024414-.1386719-1.1577148-1.0273436.5649413-.6660156-.9716797-.6655274.9716797-1.0273438-.5649414-.1376953 1.1572266-1.1542969.0024414.4624023 1.0458984-.9575195.6142578.9570313.6132813-.4624023 1.0458984 1.1542969.0024414.1376953 1.1577148z" fill="#f09400"/><ellipse cx="32.073429" cy="8.567146" fill="#fe0" rx="2.817767" ry="2.593303"/><path d="m32.0732422 11.4106445c-1.6914063 0-3.0673828-1.2753906-3.0673828-2.8432617s1.3759766-2.84375 3.0673828-2.84375c1.6923828 0 3.0683594 1.2758789 3.0683594 2.84375s-1.3759766 2.8432617-3.0683594 2.8432617zm0-5.1870117c-1.4155273 0-2.5673828 1.0512695-2.5673828 2.34375 0 1.2919922 1.1518555 2.3432617 2.5673828 2.3432617 1.4160156 0 2.5683594-1.0512695 2.5683594-2.3432617 0-1.2924805-1.1523438-2.34375-2.5683594-2.34375z" fill="#f09400"/><path d="m32.0732422 10.5307617c-1.1645508 0-2.1118164-.8808594-2.1118164-1.9633789 0-1.0830078.9472656-1.9638672 2.1118164-1.9638672 1.1650391 0 2.1123047.8808594 2.1123047 1.9638672 0 1.0825195-.9472656 1.9633789-2.1123047 1.9633789zm0-3.4272461c-.8886719 0-1.6118164.6567383-1.6118164 1.4638672s.7231445 1.4633789 1.6118164 1.4633789c.8891602 0 1.6123047-.65625 1.6123047-1.4633789s-.7231446-1.4638672-1.6123047-1.4638672z" fill="#f09400"/><ellipse cx="32.073429" cy="8.567146" fill="#f09400" rx=".729271" ry=".671156"/><path d="m39.171875 15.2900391c-.0283203 0-.0576172-.0048828-.0859375-.0151367-.1298828-.0473633-.1962891-.190918-.1484375-.3208008.0068359-.0214844.1933594-.5683594-.2197266-.9033203-.15625-.1264648-.2363281-.2958984-.234375-.4897461.0087891-.5834961.8134766-1.2290039.9746094-1.3525391.1113281-.0834961.2675781-.0625.3505859.046875.0839844.109375.0634766.2661133-.0458984.3500977-.3125.2397461-.7753906.7109375-.7792969.9624023 0 .0336914.0078125.0610352.0488281.0942383.6933594.5620117.3876953 1.4272461.3740234 1.4638672-.0361327.1010742-.1328124.1640625-.2343749.1640625z" fill="#f09400"/><path d="m24.9604492 15.2895508c-.1020508 0-.1972656-.0625-.234375-.1635742-.0131836-.0366211-.3188477-.9018555.3745117-1.4638672.0410156-.0332031.0493164-.0610352.0488281-.0942383-.0039063-.2524414-.4667969-.7236328-.7783203-.9619141-.1098633-.0839844-.1303711-.2412109-.046875-.3505859.0844727-.1098633.2412109-.1308594.3505859-.046875.1611328.1235352.9663086.769043.9741211 1.3525391.0029297.1938477-.078125.3632813-.2338867.4897461-.4130859.3349609-.2270508.8818359-.21875.9047852.0454102.1298828-.0219727.2724609-.1513672.3193359-.027832.0097656-.0566405.0146484-.0844726.0146484z" fill="#f09400"/><path d="m22.498579 13s2.2113686 1.8710852 2.0242062 3.0909882c-.1871624 1.2199001-.5804615.706686-1.2703743.5890999-.6899109-.1175881-.7538319-3.6800881-.7538319-3.6800881z" fill="#fe0"/><path d="m24.0576172 17.1376953c-.1489258 0-.2978516-.0498047-.4560547-.1030273-.1166992-.0390625-.246582-.0834961-.3911133-.1079102-.777832-.1328125-.9365234-2.5146484-.9619141-3.9223633l-.0097656-.5517578.4213867.3564453c.2373047.2006836 2.3125 1.9995117 2.1098633 3.3198242-.0502929.3271485-.1547851 1.0087891-.7124023 1.0087891zm-1.2895508-3.5517578c.0717773 1.4677734.300293 2.7353516.5332031 2.8496094.1650391.0273438.3203125.0786133.4594727.125.1176758.0395508.2294922.0771484.296875.0771484.0805664 0 .1621094-.21875.2182617-.5849609.1088867-.7114258-.8305664-1.8066406-1.5078125-2.4667969z" fill="#f09400"/><path d="m41.6457138 13s-2.2113686 1.8710852-2.0242043 3.0909882c.1871605 1.2199001.5804634.706686 1.2703743.5890999.6899109-.1175881.75383-3.6800881.75383-3.6800881z" fill="#fe0"/><path d="m40.0869141 17.1376953c-.5576172 0-.6630859-.6816406-.7128906-1.0087891-.2021484-1.3203125 1.8730469-3.1191406 2.1103516-3.3198242l.4208984-.3564453-.0097656.5517578c-.0253906 1.4077148-.1835938 3.7895508-.9619141 3.9223633-.1445313.0244141-.2744141.0688477-.390625.1079102-.1582032.0532226-.3076172.1030273-.4560547.1030273zm1.2890625-3.5517578c-.6767578.6601563-1.6162109 1.7553711-1.5078125 2.4672852.0566406.3657227.1376953.5844727.21875.5844727.0673828 0 .1787109-.0375977.296875-.0771484.1386719-.0463867.2939453-.0976563.4658203-.1269531.227539-.1123048.4550781-1.379883.5263672-2.8476564z" fill="#f09400"/><path d="m40.0271606 22.4048786s-.3786125.391407-.8456535.391407-.8456497-.391407-.8456497-.391407c0-.467041.0783997-7.0503302.8456497-7.0503302.7672539.0000001.8456535 6.5832892.8456535 7.0503302z" fill="#f5f5f5"/><path d="m39.1816406 23.0463867c-.5664063 0-1.0068359-.4487305-1.0253906-.4677734l-.0703125-.0727539v-.1010742c0-2.1948242.1064453-7.300293 1.0957031-7.300293s1.0957031 5.1054688 1.0957031 7.300293v.1010742l-.0703125.0727539c-.0185546.019043-.4589843.4677734-1.0253906.4677734zm-.5957031-.7529297c.1123047.0922852.34375.2529297.5957031.2529297s.4833984-.1606445.5957031-.2529297c-.0068359-2.1171875-.2109375-5.9785156-.5957031-6.6333008-.3847656.6547852-.5888672 4.5161133-.5957031 6.6333008z" fill="#868686"/><path d="m25.8067532 22.400259s-.3786125.391407-.8456535.391407-.8456516-.391407-.8456516-.391407c0-.467041.0783997-7.0503302.8456516-7.0503302s.8456535 6.5832892.8456535 7.0503302z" fill="#f5f5f5"/><path d="m24.9609375 23.0415039c-.5664063 0-1.0068359-.4482422-1.0253906-.4672852l-.0703125-.0727539v-.1010742c0-2.1948242.1069336-7.300293 1.0957031-7.300293s1.0957031 5.1054688 1.0957031 7.300293v.1010742l-.0703125.0727539c-.0185547.019043-.4584961.4672852-1.0253906.4672852zm-.5957031-.7524414c.1123047.0922852.34375.2524414.5957031.2524414s.4833984-.1601563.5957031-.2524414c-.0073242-2.1171875-.2109375-5.9780273-.5957031-6.6333008-.3847656.6557617-.5883789 4.5161133-.5957031 6.6333008z" fill="#868686"/><circle cx="25.701237" cy="15.019486" fill="#fe0" r=".740136"/><path d="m25.7011719 16.0097656c-.5458984 0-.9902344-.4443359-.9902344-.9902344s.4443359-.9902344.9902344-.9902344.9902344.4443359.9902344.9902344-.444336.9902344-.9902344.9902344zm0-1.4804687c-.2705078 0-.4902344.2197266-.4902344.4902344s.2197266.4902344.4902344.4902344.4902344-.2197266.4902344-.4902344-.2197266-.4902344-.4902344-.4902344z" fill="#f09400"/><circle cx="38.441372" cy="15.019486" fill="#fe0" r=".740136"/><path d="m38.4414063 16.0097656c-.5458984 0-.9902344-.4443359-.9902344-.9902344s.4443359-.9902344.9902344-.9902344.9902344.4443359.9902344.9902344-.444336.9902344-.9902344.9902344zm0-1.4804687c-.2705078 0-.4902344.2197266-.4902344.4902344s.2197266.4902344.4902344.4902344.4902344-.2197266.4902344-.4902344-.2197266-.4902344-.4902344-.4902344z" fill="#f09400"/><path d="m18.1287746 59s3.9720612 1.4285507 7.2706394 1.375c0 0-6.6878262-1.6657524-7.9811211-2.6453781-1.2932929-.9796219-1.935398-1.6625672-1.935398-1.6625672s1.0572033 2.4401322 2.6458797 2.9329453z" fill="#e66f00"/><path d="m52.9258041 31.7922897.0934372-1.4540005s-.8504448.3756237-1.6219597.7270012z" fill="#c77b00"/><path d="m13.375 29.2361145s.4190054.4870853.2797689 1.1021748l-.9740095.3402767z" fill="#c77b00"/></svg>